<svg height="100%" stroke-miterlimit="10" style="fill-rule:nonzero;clip-rule:evenodd;stroke-linecap:round;stroke-linejoin:round;" version="1.1" viewBox="0 0 500 500" width="100%" xml:space="preserve" xmlns="http://www.w3.org/2000/svg" xmlns:xlink="http://www.w3.org/1999/xlink">
<defs/>
<path d="M5.41022 250.363C5.41022 115.589 114.666 6.33356 249.44 6.33356C384.213 6.33356 493.469 115.589 493.469 250.363C493.469 385.137 384.213 494.392 249.44 494.392C114.666 494.392 5.41022 385.137 5.41022 250.363Z" fill="#ffffff" fill-rule="evenodd" opacity="1" stroke="#aa7d50" stroke-linecap="butt" stroke-linejoin="miter" stroke-width="10"/>
<path d="M152.99 123.401L152.99 177.051C161.207 172.701 169.181 168.23 176.794 163.759L199.753 150.467C216.749 159.603 233.587 169.03 250.26 178.743L266.573 188.529L266.573 265.139L258.356 269.972L249.777 274.805L225.127 288.943C216.911 293.776 208.573 298.609 200.477 303.564L167.127 284.231C155.973 277.85 144.857 271.405 133.777 264.896L133.777 186.113L133.898 148.414C134.018 135.846 133.898 123.764 133.777 112.285L133.777 111.801L152.99 123.401ZM199.235 172.701C191.261 177.051 183.407 181.521 175.552 186.113L151.869 199.888L151.869 253.659C167.624 262.388 183.215 271.412 198.631 280.726C206.607 276.375 214.461 271.905 222.315 267.314L245.998 253.539L245.998 199.767L222.678 186.235L199.235 172.701Z" fill="#a6a8ab" fill-rule="evenodd" opacity="1" stroke="#929497" stroke-linecap="butt" stroke-linejoin="miter" stroke-width="0.6"/>
<path d="M312.455 216.236L337.105 230.373C345.322 235.206 353.66 240.041 361.755 244.994C364.535 246.686 367.313 248.257 370.214 249.707C372.993 251.157 375.651 252.848 378.068 254.782L368.402 259.978L359.098 265.536L335.414 252.245L312.335 238.953C304.36 243.303 296.506 247.774 288.893 252.245C281.281 256.715 273.306 261.186 265.089 265.536C266.21 266.37 267.38 267.138 268.593 267.832L272.097 269.765C280.314 274.72 288.53 279.553 296.747 284.145C304.964 288.736 313.301 293.569 321.397 298.524L342.663 310.607C349.673 314.473 356.922 318.703 364.294 323.053L371.059 327.162L377.826 331.27L344.959 350.241L312.093 369.211C300.986 363.011 289.95 356.687 278.985 350.241C268.02 343.794 256.983 337.47 245.876 331.27C248.897 329.094 252.039 327.162 255.422 325.348C258.806 323.657 262.068 321.724 265.33 319.79L288.41 333.324L312.093 346.857C316.427 344.08 320.861 341.459 325.385 339.003C329.856 336.586 334.327 333.927 338.676 331.149C336.849 329.877 334.954 328.708 332.997 327.644C317.553 318.485 302.004 309.503 286.356 300.698C272.702 293.086 259.047 285.111 245.393 276.895L245.514 265.536C245.635 261.79 245.635 258.165 245.393 254.662L278.744 235.206L312.455 216.236Z" fill="#ff912e" fill-rule="evenodd" opacity="1" stroke="none"/>
</svg>
