<svg xmlns="http://www.w3.org/2000/svg" xmlns:xlink="http://www.w3.org/1999/xlink" xml:space="preserve" enable-background="new 0 0 500 500" viewBox="0 0 500 500">
  <defs>
    <path id="a" fill="#fff" stroke="#aa7d50" stroke-miterlimit="10" stroke-width="2.5" d="M40.1 129.2v242.4L250 492.7l209.9-121.1V129.2L250 8z"/>
  </defs>
  <use xlink:href="#a" stroke-miterlimit="10" stroke-width="2.5"/>
  <defs>
    <filter id="b" width="422.2" height="487.5" x="38.9" y="6.6" filterUnits="userSpaceOnUse">
      <feFlood flood-color="#fff" flood-opacity="1" result="back"/>
      <feBlend in="SourceGraphic" in2="back"/>
    </filter>
  </defs>
  <mask id="c" width="422.2" height="487.5" x="38.9" y="6.6" maskUnits="userSpaceOnUse">
    <g filter="url(#b)">
      <path fill="none" stroke="#fff" stroke-miterlimit="10" stroke-width="2.5" d="M40.1 129.2v242.4L250 492.7l209.9-121.1V129.2L250 8z"/>
    </g>
  </mask>
  <use xlink:href="#a" stroke-miterlimit="10" stroke-width="2.5" mask="url(#c)"/>
  <path d="M172.1 354.4v12.1l5.4-3 5.1-3 5.7 3.1 5.7 3.2 3.7 2.2v17.2l-1.9 1.1-1.9 1.1-5.6 3.2-5.6 3.3-7.5-4.3-7.5-4.3v-34.4l4.4 2.5zm10.6 11.2-5.3 3-5.3 3.1v12.1l5.3 3.1 5.2 3.1 5.3-3 5.3-3.1v-12.1l-5.2-3.1-5.3-3.1zm23.3-11.2v12.1l5.4-3 5.1-3 5.7 3.1 5.7 3.2 3.7 2.2v17.2l-1.9 1.1-1.9 1.1-5.6 3.2-5.6 3.3-7.5-4.3-7.5-4.3v-34.4l4.4 2.5zm10.7 11.2-5.3 3-5.3 3.1v12.1l5.3 3.1 5.2 3.1 5.3-3 5.3-3.1v-12.1l-5.2-3.1-5.3-3.1zm33.8-4.5a498 498 0 0 0 15 8.7v17.1l-.4.4-.6.2-6.9 4-7 4-7.5-4.3-7.5-4.4v-17.1l.4-.3.5-.3 3.2-1.8 3.2-1.8 3.8-2.2 3.8-2.2zM240 372.3v12.1l5.3 3.1 5.2 3.1 4.7-2.7 4.6-2.7.3-.1.4-.2.4-.3.2-.2v-12l-5.2-3.1-5.2-3-5.3 3c-1.9.9-3.6 2-5.4 3zm33.4 20.6c0 .1-.1.2-.4.3l-.7.3-1.6 1-1.6.9V361l2.2 1.2 2.2 1.3v3.5l5.4-3 5.1-3.1 7.5 4.3 7.5 4.3v25.9l-4.4-2.6V372l-1.3-.8-1.3-.8-3.9-2.3-3.9-2.3-5.3 3-5.3 3.1v10.5l-.2 10.5zm54.5-37.9 4.4-2.6v34.4l-7.5 4.3-7.5 4.3-5.6-3.3-5.6-3.2-1.9-1.1-1.9-1.1v-17.2l3.7-2.2 5.7-3.2 5.7-3.1 5.1 3 5.4 3v-12zm-10.6 11.1-5.2 3.1-5.2 3.1v12.1l5.3 3.1 5.3 3 5.2-3.1 5.3-3.1v-12.1l-5.3-3.1-5.4-3z"/>
  <path fill="#a6a8ab" stroke="#929497" stroke-miterlimit="10" stroke-width=".5" d="M165 113.8v44a589 589 0 0 0 19.5-10.9l18.7-10.9 20.7 11.3c6.9 3.8 13.8 7.7 20.7 11.8l13.3 8v62.7l-6.7 4-7 4c-6.7 3.8-13.5 7.6-20.2 11.6l-20.2 12-27.3-15.8c-9-5.2-18.2-10.4-27.3-15.8v-64.5l.1-30.9c.1-10.3 0-20.2-.1-29.6v-.4l15.8 9.4zm38.7 40.5c-6.5 3.6-13 7.2-19.3 11l-19.3 11.3v44l19.3 11.1a1581 1581 0 0 1 18.9 11.1c6.5-3.6 13-7.2 19.3-11l19.3-11.3v-44l-19.1-11.1-19.1-11.1z"/>
  <path fill="#2669b1" d="M258.1 167.1v44.2a589 589 0 0 0 19.5-10.9l18.7-10.9 20.7 11.3c6.9 3.8 13.8 7.7 20.7 11.8l13.3 8v62.7l-6.7 4-7 4c-6.7 3.8-13.5 7.6-20.2 11.6l-20.2 12-27.3-15.8c-9-5.2-18.2-10.4-28.1-15.1l.2-126.7m55.1 50.5c-6.5 3.6-13 7.2-19.3 11l-19.3 11.3v44l19.3 11.1a1581 1581 0 0 1 18.9 11.1c6.5-3.6 13-7.2 19.3-11L335 274v-44l-19.1-11.1-19.1-11.1z"/>
</svg>
