<svg xmlns="http://www.w3.org/2000/svg" xmlns:xlink="http://www.w3.org/1999/xlink" version="1.1" id="Layer_1" x="0px" y="0px" viewBox="0 0 500 500" style="enable-background:new 0 0 500 500;" xml:space="preserve" width="96"  height="96" >
<style type="text/css">
	.st0{fill:#FF0000;}
</style>
<circle cx="250" cy="250" r="250"/>
<path class="st0" d="M167.6,407.9c-7.9,0.2-12.9-3.2-16.9-7.4c-10.3-10.7-20-22-30.1-32.8c-3.5-3.8-7.4-7.3-11.3-10.7  c-7.8-6.7-13.9-14.6-18.9-23.6c-1.9-3.4-3.4-6.7-3.4-10.8c0-2.3,0.4-4.3,1.9-5.9c6.1-6.9,12.3-13.8,18.4-20.8  c7.4-8.5,16.7-14.8,25-22.4c5.8-5.3,11.5-10.8,16.8-16.7c2.6-2.9,4.7-6.6,6-10.3c1.3-3.6,1.3-7.8-1.7-11  c-11.2-12-22.5-23.8-33.7-35.8c-7.1-7.6-14.4-15-21.1-22.9c-4.5-5.3-8-11.4-8.5-18.7c-0.1-1.5,0.4-3.2,1.2-4.4  c7.4-11,17.2-19.4,27.9-27c8.6-6,15.5-13.7,22.4-21.6c6.6-7.6,14.7-13.4,23.6-17.8c3.9-1.9,8.4-2.3,12.7,1.1  c9.2,7.2,16.9,15.8,24.3,24.7c10,12,21.3,22.7,33,33c2.8,2.5,6.2,4.3,9.1,6.7c4.2,3.6,9.7,2.2,13.1,0c8.3-5.2,15.1-12.2,21.8-19.3  c12.6-13.3,25.5-26.5,38.5-39.5c3.7-3.7,8.2-6.8,13.6-8.2c3.8-1,6.9-0.4,10.2,2c10.2,7.3,17.3,17.4,24.6,27.3  c6.2,8.4,13.7,15.3,21.5,22.1c8.5,7.4,16.8,15,23,24.6c3.2,5,2.9,11.2-0.3,16.2c-4.6,7.2-11.1,12.6-17.3,18.2  c-9.9,9-20.3,17.5-30.4,26.4c-3.3,3-6,6.6-9.2,9.7c-3.4,3.2-6.3,6.8-8.5,10.9c-1.3,2.5-2.9,5.3-2.9,8c0.1,2.8,1.5,5.9,3.1,8.3  c5.4,8.4,12.8,15.1,20,21.9c9.3,8.9,19.2,17.2,28.1,26.4c6.7,6.9,12.6,14.7,18,22.7c2.6,3.9,2.2,9.3,0.4,14.1  c-2.7,7.1-7.9,12.2-13.3,17c-12.1,10.7-23.7,21.9-35,33.4c-6.3,6.5-14,11.7-21.3,17c-5.3,3.9-11.4,3.3-16.4-0.4  c-7.1-5.1-14.2-10.5-20.3-16.8c-8.9-9.3-16.7-19.5-25.1-29.3c-7.1-8.4-14.1-16.9-23.5-23c-4.9-3.2-9.3-2.9-14.3-0.3  c-6.2,3.3-10.7,8.6-16.2,12.7c-7.1,5.3-12.4,12.2-18.2,18.7c-6.8,7.6-13.6,15.3-21.7,21.7c-3.7,2.9-7.3,6-10.8,9.1  C172.8,406.7,169.9,408.3,167.6,407.9z M197.4,187c-0.3,4.1-3.3,5.7-5.8,7.6c-1.6,1.2-2.2,2.6-1.5,4.6c0.7,2,1.1,4,1.5,6  c0.4,2.1,1.5,2.8,3.5,2.6c1.6-0.2,3.2-0.4,4.8-0.4c0.6,0,1.3,0.7,1.9,1.1c-0.5,0.5-0.9,1.4-1.6,1.6c-1.6,0.6-3.4,1-5.1,1.5  c-1.3,0.3-2,1-1.9,2.5c0,1.1-0.4,2.2-0.8,3.2c-2.5,5.3-7.7,6.7-12.5,8.5c-0.8,0.3-2.1-0.4-3-1c-1-0.6-1.8-1.6-2.6-2.5  c-1.8-1.9-1.4-3.5,1.1-4.2c1.9-0.6,3.5-1.6,2.9-3.6c-0.6-2.2-2.6-1.3-4.1-0.8c-3.8,1-4.4,0.3-4.1-3c0.2-2.6-1.2-3.5-3.7-2.5  c-1.5,0.6-2.9,1.4-4.3,2.1c-2.8,1.3-3,2.1-0.9,4.3c4.8,5.2,9.7,10.4,14.4,15.7c2.4,2.7,2.3,2.8,5.4,1c1.1-0.6,2.2-1,2.6,0.7  c0.8,3.5,1.4,7,2.2,10.5c0.2,1.1,0.2,2.6,2,2.3c1.6-0.3,3.3-1.1,2.7-2.9c-1.3-3.9-1.4-7.7-1-11.7c0.3-2.6,3.7-9,6.1-9.8  c0.3-0.1,0.7-0.2,0.9-0.1c2.5,0.9,4.5,0.3,6.1-1.7c0.3-0.4,1.1-0.3,1.6-0.5c3.6-1.6,6.6-3.9,7.4-7.9c0.3-1.5-0.2-3.4-0.8-4.9  c-0.4-1-2.5-1.6-2.6-2.4c-0.1-1.1,1.1-2.3,1.7-3.5c0.3-0.6,0.4-1.3,0.8-1.7c0.9-1.1,1.8-2.3,3-3c1.7-1,3-0.3,3.9,1.7  c0.9,1.9,0.2,3-1.6,3.8c-0.8,0.4-1.4,1.1-2.1,1.7c0.9,0.5,1.7,1.3,2.7,1.5c4.8,0.6,9.7,1,14.5,1.6c0.5,0.1,1.3,0.5,1.5,1  c0.1,0.4-0.4,1.1-0.7,1.6c-1.4,2.2-3,4.3-4.1,6.7c-0.9,1.9-1.9,2.7-4.1,2.3c-3.5-0.5-6.8-0.3-9.7,2.2c-2.2,1.8-2.3,1.9-0.6,4.1  c0.8,1,1.5,2.1,1.8,3.3c1.4,4.6,4.4,5.4,8.2,2.4c0.9-0.7,2-1.2,3.2-1.5c2.1-0.6,3.3-2.1,3-4.2c-0.1-0.9-0.7-1.9-0.5-2.8  c0.2-0.8,0.9-1.9,1.6-2.2c0.5-0.2,1.7,0.5,2.2,1.1c0.7,0.8,1.1,1.9,1.5,3c1.6,4.6-1.8,11.1-6.9,10.3c-2.3-0.4-4.7-0.4-6.9,0.1  c-1.3,0.2-2.8,1.4-3.6,2.6c-0.4,0.7,0.5,2.2,0.9,3.4c0.2,0.5,0.9,0.7,1.1,1.2c0.3,0.6,0.3,1.4,0.4,2.1c-0.7-0.1-1.6,0-2.1-0.4  c-1.1-0.8-1.9-1.9-2.9-2.9c-1.4-1.5-2.9-1.6-4.5-0.4c-0.9,0.7-1.8,1.6-2.6,2.5c-1,1.2-2.1,2.4-3.6,1.3c-1.6-1.1-0.3-2.5,0.3-3.6  c0.6-1.2,1.4-2.3,2-3.6c1-2.1,0.3-3.1-2-2.8c-1.5,0.2-3,0.6-4.5,0.5c-1.3-0.1-2.5-0.7-3.8-1c-0.9-0.2-2.2-0.6-2.6-0.1  c-1,1-0.7,2.2,0.6,3c2,1.2,2.6,3,2.2,5.1c-0.3,1.8,0.2,3.2,1.5,4.5c0.7,0.7,0.9,2.1,0.9,3.2c0,1.6-0.5,3.1-0.6,4.7  c0,0.5,0.4,1.2,0.8,1.6c0.2,0.2,1-0.2,1.4-0.5c0.5-0.3,1-0.8,1.4-1.3c1.8-2,3.6-4.1,5.4-6.1c1.6-1.7,5.9-2.2,7.9-0.9  c0.4,0.3,0.7,0.9,0.7,1.3c0,0.3-0.7,0.8-1,0.7c-3.4-0.8-5,1.9-7.1,3.7c-1.6,1.4-2,2.9-0.8,4.8c1.8,3,1.6,3.8-1.4,5.9  c-1.7,1.2-2.5,2.6-2.3,4.6c4,1.9,4.1,1.9,7.2-1.1c1.5-1.5,2.8-1.2,3.8,0.7c1.2,2.6,0.6,4.1-2.2,5.9c-0.7,0.4-1,1.5-1.4,2.3  c0.9,0.4,1.9,0.9,2.8,1.1c0.4,0.1,0.9-0.4,1.3-0.5c0.8,0,1.9-0.1,2.4,0.3c0.5,0.6,0.8,1.8,0.7,2.6c-0.5,2.4-3.2,3.7-5.6,3  c-1.1-0.3-2.3-0.8-3.2-0.5c-1.9,0.6-3.2,0-4.6-1.1c-1.3-1.1-2.5-1.1-3.6,0.2c-1.1,1.4-0.3,2.5,0.8,3.5c0.6,0.6,1.9,1.3,1.8,1.7  c-0.4,2.8-1,5.6-1.9,8.3c-0.2,0.6-2,0.7-3,1c-1.7,0.4-2.2,1.6-2,3c0.3,1.7,1.6,1.3,2.6,0.8c3.1-1.6,7.2-2.3,7-7.1  c0-0.1,0.1-0.3,0.1-0.5c1.2-1.8,1.3-3.5,0.2-5.4c-0.7-1.1,0-1.8,1.2-1.9c2.1-0.1,2.7,0.8,2.4,2.9c-0.4,2.4-0.5,4.9-0.4,7.3  c0,0.7,1.3,2,2,2c0.8,0,1.8-1,2.4-1.8c0.4-0.5,0-1.5,0.4-2.1c0.4-0.6,1.4-1.4,1.8-1.3c2.6,0.9,3.8,0.1,3.9-2.7  c0-0.4,0.5-1.2,0.9-1.2c0.5,0,1.4,0.3,1.6,0.6c0.3,1,0.9,2.5,0.4,3.1c-2.5,3.3-4.1,7.7-9.2,8.4c-1.3,0.2-2.6,1.1-3.7,2  c-0.5,0.4-0.4,1.6-0.6,2.4c0.8,0.1,1.8,0.6,2.3,0.3c2.6-1.4,4.1-0.2,5.6,1.9c0.7,1,1.9,2.3,2.8,2.2c2.4-0.2,5.2,0.1,7-2.4  c0.8-1.2,1.8-1.5,2.9-0.1c1.4,1.8,3,1.3,4-0.1c1-1.4,1.7-3.2,2-5c0.4-2,0.8-3.6,2.8-4.7c0.6-0.4,1.2-1.6,1.1-2.3  c-0.1-0.8-1-1.7-1.8-1.9c-0.9-0.3-2,0.1-2.9,0.3c-0.9,0.1-2.2,0.6-2.6,0.2c-0.6-0.6-1-1.9-0.8-2.8c0.2-1.2,1.4-2.2,1.6-3.3  c0.3-1.3,0.4-2.8,0-4c-0.2-0.5-2-0.8-3-0.7c-1.9,0.3-3.2-0.7-3-2.8c0.2-3.1,2-5.2,4.2-7.3c1.2-1.2,2.3-1.7,4-1.1  c2.2,0.8,3.1-0.3,2.6-2.6c-0.3-1.5-0.6-2.9-0.8-4.4c-0.3-2-2-2.8-3.7-1.7c-0.6,0.4-1,1.2-1.6,1.4c-0.7,0.3-1.5,0.2-2.3,0.2  c0-0.8-0.2-1.8,0.2-2.3c0.9-1.4,2.1-2.7,3.3-4c0.9,0.1,2.1,0.1,3.1,0.3c0.8,0.2,1.5,0.7,2.1,1.2c0.9,0.6,1.7,1.4,2.6,2.1  c0.8-1.1,2-2.1,2.3-3.3c0.6-2.7,0.7-5.5,1.1-8.3c0.1-0.9,0.6-2.4,1-2.4c1.3-0.1,2.8,0.1,3.8,0.7c0.6,0.3,0.6,1.8,0.6,2.8  c0,0.7-0.6,1.5-0.9,2.2c-1.2,2.4-2.6,4.8-3.6,7.3c-0.4,1,0,2.3,0.2,3.4c0.1,0.2,1.3,0.6,1.6,0.4c0.8-0.6,1.4-1.5,2-2.3  c0.1-0.2,0-0.5,0.1-0.7c0.6-2.2,3.9-4.3,6-3.8c3.7,1,6.1,4,6.3,7.8c0.1,2,1.8,3.8,3.3,3c2.5-1.3,4.9-0.9,7.3-0.8  c0.5,0,1.2-0.2,1.6-0.5c0.8-0.7,2.1-1.5,2.1-2.2c0-0.9-0.9-2.1-1.8-2.8c-1.3-0.9-2.8-1.4-4.2-2.3c-0.7-0.4-1.1-1.1-1.6-1.7  c1.3-0.7,2.5-1,3-1.8c1.4-2,2.7-1.3,4-0.2c0.9,0.8,1.6,1.8,2.4,2.7c1.7,1.9,3.6,3.2,6.3,2.5c1.6-0.4,2.5,0.4,3.2,1.8  c0.4,0.7,1.5,0.9,2.3,1.4c0.2-1,0.9-2.1,0.6-2.9c-1-2.3-2.1-4.7-5-5.3c-0.6-0.1-1.3-0.7-1.7-1.2c-1.1-1.4-2.4-1.8-4.1-1.9  c-5.2-0.2-8.1-3.3-7.8-8.5c0.2-3.4-1.7-5.4-3.7-7.4c-0.4-0.4-1.2-0.6-1.7-0.5c-2.9,0.4-8,4.8-8.2,7.8c-0.2,2.7,0.3,4.1,2.6,4.9  c2.3,0.8,3.6,0,4.3-2.4c0.1-0.4,1.8-0.8,1.8-0.7c1,1.8,1.8,3.7,2.7,5.8c-1.3,0.2-2,0.3-3.1,0.5c0.6,1.7,1.2,3.3,2,5.6  c-1.7-0.8-2.8-1.2-3.8-1.7c-1.9-1.1-3.8-2.4-5.8-3.4c-3-1.5-4.9-3.6-4.6-7.1c0.1-1.3,0.3-2.7,0.8-3.9c0.9-2.1,2.2-4.1,3.2-6.2  c1.2-2.6,0-5-2.7-5.4c-1.1-0.2-2.4,0.1-3.4,0.6c-1.9,0.9-2.7,0.4-3.4-1.5c-0.8-2.5-1.9-4.9-2.9-7.3c-0.6-1.5-2-2.1-3-1.1  c-2.9,2.8-5.1,2.1-7.1-0.9c-0.1-0.1-0.3-0.2-0.4-0.3c-0.5-0.6-1.6-1.4-1.4-1.8c0.2-0.7,1.1-1.5,1.8-1.9c2.5-1.2,3.9-3.1,3.9-5.8  c0-1.4,0.1-2.5,1.4-3.2c0.5-0.3,0.6-1,1.3-2.1c-1.6,0-2.8-0.2-3.7,0.1c-1.7,0.5-2.7,0-3.6-1.4c-1-1.5-2-3.1-3.3-4.4  c-2.8-2.8-3.9-6-3.1-10c0.3-1.4-0.2-3.2-1-4.4c-0.9-1.4-1.1-2.4-0.2-3.9c0.3-0.5-0.2-2-0.6-2.1c-1.1-0.3-2.4-0.4-3.4-0.1  c-3.2,1.1-4.2,0.6-5-2.5c-0.2-0.9-1.1-1.6-1.6-2.4c-0.8,1-2.1,1.8-2.2,2.9c-0.2,1.3,0.5,2.8,0.8,4.2c0.5,1.9,0,3.3-2,3.9  c-1.4,0.4-3,0.7-4.4,1.3c-1,0.4-1.8,1.2-2.7,1.8c1,0.6,2,1.4,3.1,1.6c2.6,0.5,5.2,0.6,7.8,1.1c0.6,0.1,1.1,0.8,1.7,1.3  c-0.6,0.2-1.3,0.7-1.9,0.7C210.3,188.3,204,187.7,197.4,187z M304.9,219.8c-0.3,0.1-0.6,0.1-0.9,0.2c-0.2,1.1-0.5,2.2-0.6,3.4  c-0.4,2.8-0.7,5.7-1.2,8.5c-0.1,0.6-1,1.1-1.5,1.6c-0.4-0.4-1.1-0.9-1.1-1.3c-0.5-5-2.6-10.2,1.3-14.9c1.8-2.2,1.2-4.6-0.6-6.6  c-2.1-2.3-4.2-4.6-6.5-6.7c-0.7-0.6-2.1-0.8-3-0.7c-2.3,0.4-4.5,1.2-6.7,1.7c-2.1,0.4-3,1.6-2.8,3.7c0.1,1.5,0.2,3.1,0,4.5  c-0.1,0.8-0.9,1.5-1.4,2.2c-0.6-0.6-1.3-1.2-1.7-1.9c-0.3-0.5-0.3-1.2-0.4-1.9c-0.4-3.4-2.1-5.8-5.5-6.8c-4.1-1.2-6.3-4.2-8.3-7.7  c-1.5-2.6-2-4.7-1-7.6c0.9-2.4,2.6-2.8,4.6-3.2c2-0.4,2,1.4,2.5,2.6c0.2,0.4,0.4,1.1,0.7,1.2c1.2,0.5,2.5,1.2,3.6,1.1  c1.7-0.3,1.4-1.9,1.1-3.1c-0.1-0.7-0.5-1.4-0.6-2.1c-0.6-2.3,0-3.1,2.4-3.2c3.3-0.1,4.2-1.7,2.9-4.7c-0.6-1.4-1.2-2.8-1.8-4.1  c-0.8-1.8-2.5-2.2-3.8-1.1c-2.3,1.8-4.6,3.6-7.1,5c-2.6,1.4-4.7,2.9-5.4,5.9c-0.6,2.6-2.3,4.4-4.7,5.4c-2.1,0.9-2.3,2.1-1.3,3.9  c0.5,1,0.7,2.2,0.9,2.8c-3.1,0.6-5.7,1-8.2,1.8c-2.3,0.7-5.7-0.1-6.3,3.9c1.2,0.6,2.4,1.7,3.6,1.7c3.9,0,7.8-0.2,11.7-0.6  c3.9-0.4,8.6,2.5,9.1,6.3c0.4,2.9,0.9,5.5,3.5,7.3c0.5,0.3,0.6,1.3,0.9,1.9c1.8,3.5,4.1,6.5,8.1,7.6c2.2,0.6,4.1,0.2,5.2-2.2  c0.3-0.6,1.6-1.4,2.1-1.2c2.3,1,4.8,2,6.7,3.6c1,0.8,1.6,3,1.2,4.2c-0.3,1.2-2,2.5-3.3,2.7c-1.9,0.4-1.9-1.7-2.4-3  c-0.1-0.1-0.1-0.4-0.2-0.4c-0.6-0.5-1.2-1-1.9-1.5c-0.5,0.7-1.3,1.3-1.4,2c-0.6,4.3-1.1,8.6-1.6,12.8c-0.4,2.7,1.5,4.4,3.3,5.3  c1.1,0.6,3.2,0,4.5-0.8c1.9-1.1,3.4-2.9,5.3-4.1c0.8-0.5,2.2-1.1,2.8-0.7c2.7,1.4,4.9,0.2,7.3-0.7c1.1-0.4,2.4-0.4,3.6-0.4  c1,0,2.8,0.5,3,0.2c0.5-1.2,1-2.8,0.7-4c-0.9-3.7-0.8-4.1,3-4.6c0.3,0,0.8,0,0.9-0.1c0.6-0.7,1.1-1.5,1.7-2.3  c-0.7-0.4-1.3-1.1-2-1.2c-1.7-0.1-3.5,0-5.3,0.2c-2.1,0.1-3.5-0.8-4.2-2.8c-0.5-1.4-0.9-2.8-1.5-4.1  C306.3,221.6,305.5,220.7,304.9,219.8z M303.3,308.6c0.9,0,1.5,0,2,0c2.8,0,4.6-1.4,4.7-3.7c0.1-2.8-1.9-3-4-3.1  c-1.7-0.1-2.1-1.1-1.1-2.6c1.8-2.9,3.7-5.8,5.5-8.7c0.5-0.9,1.3-2.2,1-2.8c-1.5-3.2,0.4-5.1,2.2-7.2c1.7-2,1.4-3.1-1-4.5  c-2.5-1.4-4.9-3-7.4-4.4c-1.3-0.7-2.6-1.1-4-1.7c0.2,1.7,0.3,3.3,0.5,5c0,0.1,0.1,0.2,0.1,0.2c3.1,2.8,3.8,6.7,4.7,10.5  c0.7,3.2,0.7,3.7-2.2,5.3c-4.1,2.2-8.4,4.3-12.4,6.7c-3.2,1.9-6.3,2.6-9.7,0.7c-1-0.6-2.4-0.4-2.3,0.9c0.1,2.7,0.2,5.5,1.2,7.9  c0.9,2.1,3.5,0.6,5.3,0.6c0.4,0,0.8,0,1.2,0c2.1,0,3.5-0.4,3.3-3.1c0-0.9,1.3-2.3,2.3-2.8c0.5-0.3,1.9,0.6,2.7,1.3  c0.7,0.6,1.2,1.5,1.7,2.3C298.8,307.9,300.7,309.2,303.3,308.6z M178.2,188.8c-0.1-0.3-0.1-0.5-0.2-0.8c0.7-0.3,1.5-0.5,2.2-0.9  c0.9-0.5,1.8-1.1,2.4-1.9c0.8-0.8,1.3-2.6,1.9-2.6c1,0,2.2,1,3,1.8c3.1,3.4,3.9,3.5,8.9,2.1c0.7-0.2,1.4-1.8,1.5-2.8  c0.1-0.6-1-1.6-1.7-1.8c-3.3-0.8-3.3-0.9-1.3-3.8c1.6-2.4,2.9-5.1,4-7.8c0.7-1.7,0.8-3.6,1.5-5.3c0.7-1.8,0.7-2.9-1.3-3.8  c-2.2-1-4.3-2.4-6.6-3.4c-0.8-0.4-1.7-0.4-2.6-0.6c0.2,0.9,0.2,2,0.6,2.7c1.9,3.2,4.1,6.3,4.2,10.3c0,1-0.3,2.2-0.8,3.1  c-1.8,2.9-4.3,4.5-7.9,4.7c-3.5,0.2-7,0.8-10.4,1.4c-0.7,0.1-1.5,0.4-1.9,0.9c-1.3,1.6-1.9,1.7-2.6-0.4c-0.2-0.5-1.7-1.1-2.2-0.9  c-1.4,0.7-2,2.1-1.1,3.6c0.3,0.4,1.6,0.3,2.3,0.2c0.5-0.1,1-0.6,1.7-1c0.9,2.2,1.8,4.1,2.8,6.5c-1.2,0.1-2.2,0.2-3.1,0.1  c-1.3-0.1-2.9-0.7-4-0.3c-1.2,0.5-2.3,1.8-3,2.9c-0.3,0.5,0.4,2.2,0.8,2.3c1.1,0.2,2.3-0.3,3.4-0.5c1-0.2,2.1-0.4,3.1-0.4  c2.9,0.1,5.8,0.4,8.7,0.3c0.7,0,1.4-1.2,2.1-1.8c-0.8-0.6-1.5-1.4-2.4-1.8C179.9,188.8,179,188.9,178.2,188.8z M232.1,274.1  c0.4,0.7,0.7,1.7,1.3,1.9c2.5,1,3.4,3.1,4.4,5.4c0.4,1,1.3,2.3,2.2,2.5c3.8,0.9,5.7,3.5,6.7,7c0.5,2,1.6,3.6,3.7,3.9  c1.4,0.2,2.8,0.2,4.2,0.3c-0.6-1.2-1.1-2.5-1.9-3.5c-3.4-4.4-7-8.7-10.4-13.1c-0.8-1.1-0.9-2.1,0.7-2.6c2.9-0.8,5.8-1.6,8.7-2.4  c0.3-0.1,0.7,0.1,1.2,0.2c0.1,1.1,0.2,2.1,0.4,3.4c1.2-0.5,2.2-0.8,3-1.4c2.2-1.6,4.3-3.3,6.4-5.1c0.6-0.6,0.9-1.5,1.4-2.3  c-0.9-0.4-1.7-0.9-2.6-1.1c-4-0.9-8-1.6-11.9-2.5c-1.2-0.3-2.2-1.2-3.3-1.8c-1.4-0.7-2.7-1.6-4.2-1.9c-0.6-0.1-1.9,1-2.1,1.8  c-0.4,1.2,0.6,1.6,1.8,1.4c1.3-0.2,2.1,0.4,1.8,1.7c-0.5,2.1-1.2,4.2-3.6,5C237.3,272.1,234.9,273,232.1,274.1z M307.5,208.9  c-0.2-0.1-0.5-0.3-0.7-0.4c0.4-0.8,0.6-2.2,1.1-2.3c0.9-0.2,2.2,0,3,0.6c2,1.3,3.7,3,5.7,4.3c0.8,0.5,2.1,1.2,2.8,0.9  c2.5-1.1,4.3-0.3,6.1,1.3c0.9,0.8,2.1,1,2.9-0.3c1.6-2.9,3.1-5.8,4.5-8.7c0.7-1.4,0.1-2-1.4-1.6c-0.6,0.2-1.2,0.5-1.7,0.7  c-2.8,1.3-5.5,2.8-8.4,4c-3.9,1.5-9.1-2.2-9.1-6.4c0-2.4-0.6-4.4-2.2-6.1c-1.6-1.7-1.7-3.4-0.9-5.5c0.4-1-0.2-2.3-0.2-3.5  c0-0.7,0.2-1.5,0.6-2c0.9-1.1,1.1-2.3-0.2-2.8c-1.1-0.4-2.5-0.1-3.8-0.1c0.2,0.9,0.1,2.3,0.7,2.8c1.6,1.3,1,1.9-0.5,2.4  c-0.5,0.2-1.1,0.4-1.6,0.5c-2.1,0.5-3.2,1.6-2.6,3.9c0.2,0.8-0.1,1.8,0.3,2.6c0.4,0.8,1.1,1.8,1.8,2.1c3.3,1.2,3.6,2.3,1.1,4.7  c-0.4,0.4-0.8,0.8-1.2,1.2c-2.2,2.1-2.5,6.7-0.5,8.9c0.6,0.7,2,1.2,2.8,1C306.5,211.1,307,209.7,307.5,208.9z M191.7,294.6  c-0.9,1-1.8,2-2.7,3c-3.4,3.5-6.9,7.1-10.4,10.6c-1.3,1.3-2.9,1.6-4.6,0.6c-1.4-0.9-1.5-2.1-1-3.7c0.7-2.4-1.7-2.9-3-4  c-1.2-1.1-2.3-0.4-3.4,0.5c-2.2,2-4.3,4-6.6,5.9c-2.2,1.8-2.3,2.5-0.3,4.4c0.8,0.7,1.7,1.1,2.5,1.7c1.6,1.1,3.3,2.1,4.6,3.5  c1.3,1.4,2.4,1.6,3.9,0.4c1.8-1.6,3.7-3,5.6-4.5c4.6-3.8,9.3-7.5,13.9-11.3C192.8,299.5,193.3,297,191.7,294.6z M188.1,267.2  c-1.9,0-4,2.3-3.5,4.1c0.4,1.3-0.2,1.8-1.2,2.1c-2.2,0.7-4.4-0.5-5.4-2.6c-0.4-0.8-1.4-1.7-2.1-1.7c-0.7,0.1-1.6,1.1-2,1.9  c-0.7,1.3-1.2,2.8-1.4,4.3c-0.2,1,0.1,2.1,0.2,3.1c1.1-0.1,2.4,0.1,3.2-0.5c1.4-1,2.4-0.7,3.6,0.2c1.4,1.1,2.7,2.7,4.3,3  c3.8,0.8,5.2,3.9,7.2,6.4c0.5,0.6,0.9,1.3,1.4,2c0.9,1.2,1.9,2.5,3.5,1.6c1.6-0.9,1-2.5,0.5-3.8c-1.4-3.6-2.9-7.2-4.1-10.9  c-0.5-1.5-0.5-3.2-0.5-4.8C191.7,269.4,190.1,267.2,188.1,267.2z M285.1,334.2c-0.5,0.3-1.4,0.7-1.6,1.2c-0.2,0.6,0.1,1.5,0.4,2.2  c1,1.8,2.4,3.4,3.3,5.2c0.4,0.8,0.5,2,0.1,2.8c-1.3,2.8-0.8,4.5,2.1,5.7c1,0.4,2.1,1,3.1,1.2c1.1,0.2,2.2,0,3.3,0  c-0.1-1.2,0.2-2.7-0.3-3.7c-0.7-1.4-0.8-2.4,0.2-3.7c1.4-1.7,2.6-3.4,3.8-5.2c0.4-0.6,0.7-1.6,0.4-2.2c-0.2-0.5-1.3-0.8-2-0.9  c-0.8-0.1-1.6,0.1-2.4,0.1c-3.1-0.3-6.7,1.2-9-2.2C286.4,334.4,285.8,334.4,285.1,334.2z M284.6,276.2c0.5-0.3,1.2-0.7,2-1.1  c-0.5-0.8-0.8-1.7-1.5-2.2c-1.9-1.5-4-2.7-5.9-4.1c-1.6-1.2-3.1-1.8-4.7-0.3c-1.5,1.5-1.4,3.1-0.1,4.7c0.9,1.1,0.9,1.8-0.7,2.5  c-3.7,1.6-4,3.7-0.9,6.4c2.3,2,4.4,3.9,4.2,7.4c0,0.4,0.6,1.2,1,1.3c0.5,0.1,1.2-0.3,1.6-0.7c2.8-3.1,3-5.8,1-9.4  c-0.5-1-1.3-1.8-1.8-2.8c-0.3-0.6-0.4-1.4-0.6-2.1c0.7-0.1,1.5-0.4,2.2-0.3C281.6,275.5,282.9,275.8,284.6,276.2z M265.4,329  c0,0.1,0,0.2,0,0.3c1,0,2.1,0.3,2.8-0.1c1.2-0.7,2.9-1.8,2.9-2.9c0.1-2.1-0.3-4.6-1.3-6.4c-2.1-3.7-5.5-3.5-8.1-0.3  c-1.4,1.8-3.6,3-5.6,4.2c-1.3,0.8-2.7,1.2-2.5,3c0.2,1.8,1.6,2.2,3.2,2.2C259.7,329,262.5,329,265.4,329z M328.4,184  c-0.2,1.7-0.5,2.9-0.5,4.1c0.1,0.9,0.6,1.8,0.9,2.6c0.9-0.5,2.1-0.7,2.6-1.5c1-1.6,1.7-3.4,2.5-5.1c0.8-1.6,0.3-3.1-1.3-3.5  c-1.2-0.3-2.7,0.1-4.4,0.3c-0.4-0.4-0.9-1.4-1.7-1.9c-0.8-0.5-2.2-1-2.7-0.6c-2.9,1.9-5.7,4-9,6.4c1.9,1.3,3.4,2.8,5.2,3.4  C323.7,189.6,325,185.2,328.4,184z M309.6,357c0.8,1,1.3,2.3,2.1,2.6c0.7,0.2,2.1-0.3,2.8-1c3.1-3.1,6-6.4,8.9-9.7  c1.8-2.1,3.6-3.7,6.7-2.2c1.4,0.7,3.5-1.1,3.1-2.4c-0.8-2.9-4-4.3-6.7-3.1c-1.1,0.5-2.1,1.2-3,2c-3.9,3.3-7.7,6.7-11.5,10.1  C311.2,354.2,310.6,355.6,309.6,357z M255,214.1c-3.2-0.6-6.3,2.7-5.9,5.7c0.2,1.5,1.3,2.6,2.6,1.6c2.2-1.8,3.8-0.6,5.5,0.6  c1,0.7,1.9,1.4,2.9,2.1c1.5,0.9,2.5,0.5,2.5-1.3c0-1.4-0.2-2.9-0.1-4.3c0.1-1.7,0.5-3.3,0.7-5c0.1-1,0.1-2,0.1-3  c-0.9,0.2-1.8,0.3-2.7,0.7C258.8,212.1,256.9,213.2,255,214.1z M170.3,160.8c0.1-0.2,0.3-0.4,0.4-0.6c1.8,0.6,3.5,1.2,5.3,1.7  c0.6,0.1,1.5-0.1,2-0.5c0.2-0.2,0-1.5-0.4-1.8c-2.1-1.4-4.3-2.7-6.7-3.7c-0.7-0.3-2.3,0.2-2.6,0.8c-0.3,0.7,0.3,1.9,0.6,2.8  C169.2,159.9,169.8,160.3,170.3,160.8c-1.1,0.5-2.1,0.6-2.5,1.1c-0.7,0.9-1.7,2.4-1.4,3.1c1.4,2.9,3.3,5.6,5.1,8.3  c0.8,1.1,1.7,1.1,2.6-0.2c2.8-3.9,2.6-6.2-1-9.5c-0.6-0.5-1.3-0.9-1.9-1.5C170.9,161.8,170.6,161.3,170.3,160.8z M293.6,289.5  c4,0,7.9-6.8,6.3-9.5c-1.1-1.8-2.3-3.4-3.7-4.9c-0.7-0.8-1.8-1.4-2.8-1.7c-1.9-0.6-2.7,0.2-2.5,2.2c0.4,4,0.8,8.1,1.4,12.1  C292.4,288.4,293.3,289.1,293.6,289.5z M332.2,172.6c0.7-0.6,1.4-0.9,1.4-1.4c0.9-4.3,1.9-8.5,2.3-12.8c0.2-2.4-3.3-4.4-5.7-3.8  c-2.7,0.7-3.5,2.4-2.5,5.6c1,3.2,1.9,6.4,3,9.5C331.1,170.6,331.6,171.5,332.2,172.6z M267.3,312.1c0.7,1.2,1.2,2.5,2.2,3.4  c0.5,0.4,2.1,0.3,2.6-0.1c2-2,4-2.4,6.3-0.6c0.2,0.2,0.6,0.2,0.9,0.2c3.1-0.3,6.2-0.5,9.3-0.9c0.7-0.1,1.5-1,1.7-1.7  c0.1-0.5-0.6-1.7-1.1-1.8c-1.7-0.4-3.8-1-5.2-0.3c-2.6,1.1-4.9,1-7.4,0.2c-1.9-0.6-3.9-1-5.8-1.3  C268.7,308.8,267.6,309.7,267.3,312.1z M160.6,205c7,0.2,7.1,0,7.2-5.4c0-1.8-0.6-2.9-2.1-3.6c-1.8-0.8-3.8-1.3-5.4,0.2  c-1.8,1.7-3.4,3.5-5,5.4c-1.3,1.6-0.6,3.1,1.4,3.3C158.1,205.1,159.3,205,160.6,205z M147.3,153.6c-0.8,0.5-2.6,1.1-3,2.3  c-0.6,1.5-0.6,3.6,0,5.1c0.4,0.8,2.7,1.5,3.9,1.2c3.5-0.9,6.9-2.2,10.4-3.5c0.6-0.2,1.2-1,1.3-1.6c0-0.4-0.8-1.3-1.3-1.4  C155,154.9,151.4,154.3,147.3,153.6z M258.6,309.1c-3.4,0.7-5.9,1.2-8.5,1.7c-2.4,0.4-2.9,1.8-1.6,3.9c0.8,1.3,1.4,2.8,2.1,4.2  c0.5,0.9,0.8,2,1.6,2.6c0.5,0.5,1.7,0.6,2.4,0.3c0.4-0.2,0.4-1.3,0.7-2c0.4-1,0.7-2.1,1.3-3c1-1.7,2.5-3.1,3.3-4.8  C260.6,310.2,259.6,309.1,258.6,309.1z M284.4,166.2c-0.4,0.9-0.7,1.3-0.7,1.6c-0.1,3.3-0.3,6.5-0.2,9.8c0.1,2.1,1.9,3.1,4,2.3  c1.2-0.5,2.4-1.3,3.5-2c2.9-1.8,3-4,0.3-6.2c-1.3-1.1-2.4-2.3-3.7-3.4C286.8,167.6,285.7,167,284.4,166.2z M322.7,202.4  c3.1,0.3,8-3.8,7.9-6.2c0-0.6-0.5-1.6-0.9-1.7c-1.6-0.4-3.4-0.9-5-0.7c-1.9,0.2-3.6,1.1-5.4,1.7c-2.2,0.7-2.9,2.8-1.1,4.3  C319.6,201.1,321.5,201.8,322.7,202.4z M180.8,165.1c0.6,1.6,1.3,3.8,2.3,5.9c1.2,2.4,3.4,2.3,4.8,0c2.4-3.9,1.7-8-1.9-10.9  c-1.9-1.6-4.1-0.9-4.6,1.6C181.2,162.6,181.1,163.5,180.8,165.1z M300.5,181.7c-0.1-0.5,0.1-1.9-0.5-2.8c-0.6-1-1.9-1.9-3-2.3  c-0.6-0.2-2.2,0.8-2.2,1.3c0,1.1,0.3,2.5,1.1,3.3c1.2,1.4,1.4,2.7,0.6,4.3c-1.2,2.6-2.1,5.3-0.7,8.2c0.4,0.8,1.3,1.4,2,2.1  c0.6-0.7,1.5-1.4,1.6-2.3C299.9,189.9,300.2,186.1,300.5,181.7z M284.8,320.9c-0.6-1.1-1.2-2.1-1.8-3.2c-1,0.7-2.6,1.1-3,2  c-1,2.7-2.4,4.9-5.1,6.3c-1.3,0.7-1.5,2.4-0.3,3.2c0.8,0.6,2.5,0.8,3.3,0.3c1.6-0.8,2.8-2.3,4.2-3.4  C283.6,324.8,284.6,323.3,284.8,320.9z M288.9,165.4c2.4,1.4,4.1,2.5,5.9,3.5c0.7,0.4,1.4,0.8,2.2,0.9c2.4,0.5,3.3-0.5,2.7-2.9  c-0.4-1.5-0.7-3.1-1.4-4.5c-0.4-0.7-1.6-1.7-2.2-1.5c-2.1,0.6-4.1,1.4-5.9,2.5C289.3,163.8,289.1,165.1,288.9,165.4z M333.8,357.5  c0.3-0.1,0.5-0.2,0.8-0.3c-0.1-0.9-0.1-1.9-0.4-2.8c-0.1-0.3-1.4-0.6-1.5-0.5c-1.4,1.9-2.7,3.9-3.8,6c-0.2,0.4,0.4,1.4,0.9,2  c1.1,1.5,2.3,2.9,3.4,4.3c0.8,1.1,1.7,2.4,3.3,1.5c1.8-1,0.6-2.3,0.1-3.5C335.6,362.1,334.7,359.8,333.8,357.5z M202.7,268.3  c0-2.6-2.4-3.9-4.5-2.8c-2.7,1.4-4.4,3.6-4.6,6.8c0,0.8,0.3,2,0.9,2.5c0.4,0.3,1.6-0.1,2.3-0.4c0.8-0.3,1.6-0.7,2.3-1.2  C201,271.8,202.5,270.2,202.7,268.3z M310.8,166c1.3-0.7,2.4-1.1,3.2-1.8c2.6-2.2,5.2-4.5,7.7-6.8c0.5-0.5,1.1-1,1.4-1.6  c0.3-0.5,0.2-1.2,0.3-1.8c-0.6,0-1.2-0.2-1.7,0c-2.4,1.2-4.7,2.6-7.1,3.8C311.6,159.5,310.3,161.9,310.8,166z M143.2,164.7  c-0.2,0.2-0.5,0.4-0.7,0.6c0.2,0.7,0.1,1.6,0.5,2.2c1.4,2.5,3.1,4.9,4.4,7.5c1.1,2.3,2.9,3.1,5,3.5c1.6,0.3,2.2-0.7,1.5-2  c-0.7-1.3-2-2.3-2.9-3.4c-1.4-1.7-2.6-3.5-4.1-5.1C145.8,166.8,144.5,165.8,143.2,164.7z M156.3,189.1c-2.1,0.7-4.3,1.3-6.4,2.1  c-0.3,0.1-0.6,1-0.5,1.4c0.8,2,1.7,4,2.8,5.8c0.5,0.8,1.8,1.5,2.5,0c1.1-2.2,2.1-4.5,3.2-6.8C158.5,190.1,157.9,189.4,156.3,189.1z   M263.6,285.1c0.2,1.1,0.4,2.2,0.7,3.2c1-0.7,1.9-1.3,2.9-2c0.1,0,0.1-0.1,0.2-0.2c1.6-1.6,1.4-2.7-0.5-4.1c-1-0.7-2-1.5-3-2.3  c-1-0.7-2-1.6-3.1-2.2c-0.5-0.3-1.5-0.2-1.9,0.1c-0.4,0.4-0.8,1.6-0.5,1.9c0.9,1,1.9,2.1,3.1,2.4  C263.1,282.6,263.9,283.3,263.6,285.1z M206.8,309c-1-6-0.6-6.6-6.1-7.3c-0.1,0-0.2,0-0.2,0c-0.7,0.1-1.4,0.3-2.1,0.4  c0.2,0.7,0.2,1.6,0.6,2.2c1.4,1.9,3,3.7,4.6,5.5c0.5,0.6,1.7,1.3,2,1.1C206.3,310.5,206.6,309.4,206.8,309z M293.8,190.4  c0-0.3,0.1-0.7,0.1-1c-0.9-0.9-1.8-1.9-2.8-2.7c-1.3-1.1-2.8-2-4.1-3.1c-1.1-1-2.2-1.5-3.3-0.4c-1.1,1.1-1.2,2.6,0.1,3.6  c2.1,1.6,4.4,3.2,6.8,4.4C291.3,191.5,292.7,190.7,293.8,190.4z M334.1,134.7c-0.1-1.9-4.5-4.9-5.9-4.6c-0.3,0.1-0.6,0.2-0.9,0.4  c-1.4,1.3-2.9,2.5-4.1,4c-0.4,0.4-0.5,1.7-0.2,2.1c0.5,0.5,1.5,0.7,2.3,0.7c0.5,0,1.2-0.5,1.6-1c1.4-1.5,2.8-2.1,4.9-1.1  C332.4,135.3,333.4,134.8,334.1,134.7z M194.7,310.8c0.5-2.4-0.5-3.7-1.9-4.6c-0.6-0.4-2-0.4-2.6,0c-1.9,1.4-3.8,2.9-5.5,4.5  c-0.5,0.5-0.5,1.5-0.7,2.3c0.9,0.2,1.7,0.5,2.6,0.5c0.5,0,1.1-0.5,1.6-1C190,310.8,191.9,309.5,194.7,310.8z M178.6,197.2  c-0.2-0.3-0.8-1.4-1.4-1.4c-0.9,0-2.2,0.4-2.8,1.1c-1.3,1.6-2.4,3.4-3.4,5.2c-0.3,0.6-0.4,1.6,0,2.1c0.3,0.5,1.3,1,1.9,0.9  C174.8,204.9,178.7,199.8,178.6,197.2z M338.1,331.6c-0.1,2.4,2.5,5.4,4.5,5.4c1.5,0,3-1.7,3-3.1c0-1.8-3-4.7-4.8-4.7  C339.1,329.2,338.2,330.1,338.1,331.6z M247.6,211.8c1.9-1,3.2-1.7,4.6-2.4c1.3-0.6,2.3-1.5,1.5-3c-0.7-1.4-2-2-3.6-1.4  c-1.2,0.5-2.4,1-3.4,1.7c-0.7,0.6-1.7,1.8-1.5,2.4C245.5,210.2,246.7,210.9,247.6,211.8z M161,172.4c0.9-0.4,1.6-0.6,2.2-0.9  c1.6-1,1.9-3.1,0.4-4.1c-1.5-1.1-3.2-2.1-4.9-3c-0.7-0.3-1.7,0-2.6,0.1c0.3,1.1,0.4,3.2,1,3.3C159.7,168.3,160.7,169.9,161,172.4z   M198.1,330.8c-0.4,0-0.8-0.2-1.1-0.1c-2.3,0.6-4.4,1.1-6.4-1c-0.3-0.4-1.6,0.1-2.4,0.2c0.2,0.9,0,2.2,0.5,2.5  c1.6,1.1,3.4,2.1,5.3,2.5C196.2,335.4,198.3,333.1,198.1,330.8z M176.4,284c-0.1-0.2-0.2-1.3-0.7-1.5c-0.5-0.2-1.5,0.2-2.1,0.7  c-1.4,1.1-2.7,2.3-3.8,3.6c-0.5,0.6-0.6,2-0.2,2.5c0.5,0.6,1.8,1.1,2.6,0.9C174.2,289.8,176.3,286.8,176.4,284z M170.9,359.8  c1.1-3.1-1.8-7.4-4.7-7c-0.9,0.1-1.9,1.1-2.3,1.9c-0.3,0.6,0.3,2,0.8,2.4C166.7,358.1,168.8,358.9,170.9,359.8z M164.9,296.5  c-1.2-0.9-1.9-1.8-2.4-1.7c-1.9,0.5-3.7,1.2-5.4,2.2c-0.5,0.3-0.7,1.9-0.4,2.5c0.4,0.8,2,1.9,2.2,1.7  C161,299.9,162.7,298.3,164.9,296.5z M319.9,176.6c0.9-0.5,1.5-0.7,1.9-1.2c1.2-1.4,2.4-2.9,3.5-4.4c0.8-1.1,1.6-2.5,0.1-3.2  c-0.8-0.3-2.3,0.8-3.3,1.4c-0.3,0.2-0.2,1.1-0.5,1.5c-0.5,0.7-1.2,1.4-1.9,1.9c-0.7,0.6-1.6,1.2-2.4,1.7  C318.2,175.2,319,175.9,319.9,176.6z M158.5,333.6c3,0,6.2-2,5.6-3.1c-0.8-1.3-2.3-2.5-3.7-3.1c-1.4-0.5-3.6,2-3.3,3.8  C157.2,332.2,158.2,333.1,158.5,333.6z M341.2,168.9c-3.1,0.1-5.6,2.1-5.1,3.9c0.2,0.9,1.5,2.1,2.4,2.3c1.6,0.3,4.6-2.6,4.3-4  C342.7,170.1,341.6,169.3,341.2,168.9z M281.7,158.5c0,1.8,1.1,2.4,2.7,1.6c1.2-0.6,2.4-1.3,3.4-2.1c0.6-0.5,1.2-1.6,1-2.1  c-0.4-0.8-1.3-1.7-2.2-1.8C284.4,153.6,281.6,156.2,281.7,158.5z M180.4,328.3c-0.4-0.8-0.6-1.6-1-1.7c-0.6-0.1-1.3,0.1-1.9,0.5  c-1.4,0.8-2.8,1.7-4.1,2.7c-0.7,0.5-1.5,1.6-1.3,2.2c0.3,1.2,1.3,2,2.8,1.2c1.3-0.8,2.7-1.4,3.9-2.4  C179.5,330.2,179.9,329.2,180.4,328.3z M316.4,311.7c1.4-0.3,3.3,0,3.4-2.4c0-1.5-2.1-3.1-4-3.1c-1.5,0-3.5,1.7-3.3,2.9  C312.9,311.2,314.5,311.6,316.4,311.7z M162.2,153.7c0.3-0.3,1.3-1,1.5-1.9c0.4-1.6-2.5-4.5-4.3-4.3c-0.7,0.1-1.8,1.3-1.9,2  C157.3,151.9,159,153.6,162.2,153.7z M306.1,349.9c1.7-0.1,3.2-0.4,3.4-2.3c0.2-1.5-1.6-3.4-3-3.5c-1.6,0-3.9,1.7-3.8,3  C302.9,349.3,304.5,349.8,306.1,349.9z M138.3,328.9c2.6-0.1,5.6-2.4,5.3-3.8c-0.2-0.8-1.2-1.9-2-1.9c-2.5-0.2-5.1,1.7-4.8,3.5  C137,327.7,137.9,328.4,138.3,328.9z M294.9,329.8c-0.1-1.6-1.1-2.5-2.9-2.6c-1.9-0.1-3.1,0.8-3.2,2.7c-0.1,1.6,0.6,3,2.4,3.2  C292.9,333.4,294.8,331.6,294.9,329.8z M323,148.5c0.3-0.4,1.3-1.1,1.5-1.9c0.3-1.6-1.9-3.8-3.9-3.7c-0.9,0.1-2.1,0.8-2.4,1.5  C317.7,146,320.3,148.2,323,148.5z M156.8,135c-0.9-1.5-1.6-3-2.6-4.1c-0.4-0.4-1.7-0.4-2.4,0c-0.4,0.2-0.5,1.4-0.3,2.1  c0.3,1.1,0.8,2.1,1.5,3c0.6,0.8,1.4,1.3,2.2,1.9C155.7,137,156.1,136.1,156.8,135z M181.1,206c0.9,0.6,1.8,1.6,2.8,1.7  c1.6,0.3,3.4-1.6,3-3.2c-0.2-0.9-1.3-2-2.2-2.2C183,202,181.5,203.7,181.1,206z M218.6,211.7c1.5-0.3,2.8-0.9,2.7-2.8  c-0.1-1.9-1.6-2.3-3-2.3c-1.5,0-2.9,0.5-2.8,2.4C215.6,210.8,216.8,211.6,218.6,211.7z M137.5,166.4c-0.4-0.3-1-1.2-1.8-1.3  c-1.7-0.4-3.8,1.8-3.6,3.9c0.1,0.8,1,2,1.7,2.2C135.4,171.4,137.4,168.9,137.5,166.4z M282.3,233.1c-0.1-2.5-0.8-3.6-2.6-3.7  c-1.7-0.1-2.6,0.8-2.6,2.4c0,1.5,0.3,3.4,2.2,3.3C280.5,235,281.6,233.6,282.3,233.1z M139.6,338.3c-0.5-0.1-1.2-0.4-1.8-0.2  c-1.5,0.4-2.9,0.8-4.3,1.4c-0.6,0.3-1.4,1.2-1.3,1.6c0.1,0.7,0.8,1.6,1.5,1.9C135.3,343.8,139.6,340.5,139.6,338.3z M251.7,307.5  c0.5-1.4,1.2-2.5,1-2.9c-0.9-1.4-2-2.8-3.3-3.9c-0.4-0.4-1.6-0.1-2.4,0.2c-0.3,0.1-0.7,1.2-0.6,1.3  C247.9,303.9,249.5,305.4,251.7,307.5z M341.1,142.8c2.5,1.1,4.8,1.1,6.7-0.6c0.5-0.5,0.6-1.7,0.5-2.5c0-0.3-1.2-0.8-1.7-0.7  C344.4,139.5,342.4,140.4,341.1,142.8z M277.9,299c-1.4-1.1-2.1-2.1-3-2.3c-1.2-0.3-3,2-2.6,3.6c0.2,1,1.4,1.8,2.2,2.6  C275.5,301.7,276.5,300.6,277.9,299z M315.9,151.8c0.1-2.5-1.5-4.2-3.4-4.1c-0.7,0.1-1.9,0.9-2,1.6c-0.3,1.6,1.7,4.1,3.1,3.9  C314.6,153.1,315.4,152.2,315.9,151.8z M286.8,197.8c0-0.4,0-0.7,0-1.1c-1-0.8-1.9-1.9-3-2.2c-1.4-0.3-2.7,0.6-2.6,2.3  c0.2,1.6,1,3,2.9,2.8C285.1,199.5,285.9,198.4,286.8,197.8z M136.2,177.1c0.6,0.4,1.5,1.4,2.5,1.5c1.5,0.3,3.1-1.8,3.1-3.3  c-0.1-1.7-1.3-1.8-2.5-1.8C137.6,173.7,136.4,174.4,136.2,177.1z M368,346.4c0.1,1.5,0.2,3,2.2,3.1c2.1,0.1,2.2-1.5,2.3-3  c0-1.3-0.1-2.9-2-3C368.5,343.4,368.2,344.8,368,346.4z M262.4,306.4c0.3-0.4,1.3-0.9,1.5-1.7c0.3-1.3-2-3.6-3.4-3.3  c-0.8,0.2-2,1.1-2.2,1.8C258,304.6,260.1,306.4,262.4,306.4z M322.4,384c-0.2,0.2-0.5,0.3-0.7,0.5c0.9,1.7,1.6,3.5,2.7,5  c0.3,0.5,1.5,0.4,2.3,0.6c0.2-0.8,0.6-1.6,0.4-2.3C326.5,385.4,324.6,384.5,322.4,384z M350.5,175.7c-0.3-1.9-1.1-2.6-2.5-2.6  c-1.8,0-2.8,1.2-2.5,2.7c0.2,1,1.6,1.8,2.4,2.7C348.7,177.6,349.6,176.6,350.5,175.7z M161.5,376.2c0.4,1.9,0.8,3.4,2.7,3.3  c0.7,0,1.8-1.1,2-1.9c0.3-1.7-1.5-4.1-2.5-3.7C162.7,374.3,162.2,375.5,161.5,376.2z M163.9,145.8c1.2-1.4,2.6-2.7,2.5-2.9  c-0.7-1.1-1.8-2-2.9-2.6c-0.3-0.2-2.1,1.4-2,1.9C161.8,143.4,162.8,144.3,163.9,145.8z M182.4,290.8c0.4,0,0.7,0,1.1,0.1  c0.7-0.9,2-1.8,1.9-2.7c-0.1-0.9-1.4-1.8-2.2-2.7c-0.8,0.9-2,1.6-2.2,2.6C180.8,288.9,181.9,289.9,182.4,290.8z M254,257.7  c-1.3,1.4-2.3,2.3-3,3.3c-0.1,0.2,1.2,1.8,1.9,1.8c1.5,0,3.1-0.7,3-2.7C255.8,259.6,254.9,258.9,254,257.7z M198.6,262.6  c0.7-0.8,2.1-1.9,1.9-2.2c-0.6-1.1-1.6-2.3-2.7-2.7c-1.4-0.5-1.7,1-1.8,2.1C195.8,261.1,196.4,262.1,198.6,262.6z M319.8,371.8  c-1.1,1.6-2.1,2.6-2.3,3.6c-0.1,0.5,1.7,2.1,1.9,1.9c1-0.6,2.1-1.5,2.6-2.6C322.1,374.4,320.9,373.3,319.8,371.8z M316.6,301.3  c-0.1-2.6-1.5-4.1-3.1-3.7c-0.6,0.1-1.5,1.4-1.4,1.5c0.8,1.2,1.8,2.3,2.9,3.3C315.2,302.5,316.3,301.5,316.6,301.3z M194.6,320.7  c1.2-1.1,1.9-1.8,2.7-2.5c-1-0.8-2-1.9-3.2-2.3c-0.4-0.2-1.4,1.2-2.2,1.8C192.7,318.6,193.5,319.5,194.6,320.7z M339.5,379.8  c0.4,0.4,1,1,1.5,1.6c0.9-1.1,1.9-2.2,2.6-3.4c0.2-0.3-0.9-1.7-1.4-1.8C340.2,376.1,339.8,377.7,339.5,379.8z M301.4,170.9  c0,0.3,0,0.7,0.1,1c0.6,0.5,1.3,1.4,1.9,1.4c1.7,0.1,3-0.9,3-2.7c0-0.6-1.2-1.9-1.5-1.8C303.6,169.4,302.5,170.2,301.4,170.9z   M153.5,185.8c-1.7-1.4-2.8-2.5-4.2-3.3c-0.2-0.1-1.2,0.9-1.8,1.4c1.1,1.1,2.2,2.3,3.5,3.2C151.2,187.3,152.2,186.5,153.5,185.8z   M213.4,308c-1.3,1.3-2.6,2.1-2.6,2.8c0.1,2,2.1,1.8,3.5,2c0.5,0,1.7-1.2,1.6-1.3C215.4,310.4,214.6,309.5,213.4,308z M199.8,323.9  c0.3,0.3,0.6,0.6,1,1c1.1-0.6,2.5-1.1,3.3-2c0.5-0.6,0.1-2,0.1-3c-0.9,0.2-2.1,0.2-2.7,0.8C200.6,321.5,200.3,322.8,199.8,323.9z   M138.7,152.7c-0.4,0-0.7,0-1.1,0c-0.5,0.9-1.6,1.8-1.4,2.6c0.2,0.9,1.4,1.5,2.2,2.2c0.7-0.8,1.7-1.6,1.8-2.5  C140.3,154.3,139.2,153.4,138.7,152.7z M133,350c0-0.4,0-0.7,0.1-1.1c-0.9-0.6-1.9-1.6-2.8-1.6c-0.7,0-1.9,1.1-2,1.9  c-0.2,1.7,1.1,2.4,2.6,2.2C131.6,351.3,132.2,350.5,133,350z M303.5,164.5c1.3-1.5,2.3-2.7,3.2-3.9c0.1-0.1-1.1-1.1-1.6-1.6  c-1,1.2-2.1,2.5-3,3.8C302,162.8,302.7,163.5,303.5,164.5z M337.4,149.6c-1.2-1-2-2.2-2.7-2.2c-0.9,0.1-1.7,1.2-2.5,1.8  c0.9,0.8,1.6,1.8,2.6,2.2C335.2,151.7,336.2,150.6,337.4,149.6z M292.5,150.2c-0.3,0-0.7,0.1-1,0.1c-0.4,0.7-1.3,1.7-1.1,2  c0.7,1,1.8,1.8,2.7,2.7c0.5-0.7,1.7-1.6,1.5-1.9C294.2,152,293.3,151.1,292.5,150.2z M158.9,181.6c-0.9,1.2-2,2.2-1.8,2.5  c0.4,1,1.3,1.9,2.3,2.5c0.2,0.1,2-1.3,1.9-1.6C160.9,184,160,183.1,158.9,181.6z M350.6,350.6c-1.1,1.3-2.1,2.3-2,2.5  c0.6,1,1.4,1.8,2.4,2.4c0.2,0.1,1.8-1.2,1.7-1.5C352.4,353,351.6,352.1,350.6,350.6z M126.9,333.5c-1.5-1.1-2.3-2-3.2-2.1  c-0.5-0.1-1.5,1.2-1.7,2c-0.3,1.4,0.7,2.3,2.1,2.1C124.9,335.3,125.5,334.5,126.9,333.5z M310.1,154.6c-1.3-0.8-2.2-1.5-2.4-1.4  c-1,0.7-1.9,1.7-2.8,2.6c0.5,0.5,1.2,1.5,1.4,1.4C307.4,156.6,308.4,155.7,310.1,154.6z M355.2,134.1c-1.2-1-2.1-2.2-2.4-2  c-0.9,0.4-1.6,1.4-2.4,2.1c0.6,0.6,1.2,1.7,1.7,1.6C352.9,135.8,353.7,135,355.2,134.1z M146.1,364.6c1-1.1,2.1-2,2-2.2  c-0.5-0.9-1.2-1.8-2.1-2.3c-0.3-0.1-1.8,1.1-1.8,1.7C144.2,362.6,145.2,363.3,146.1,364.6z M314,138.4c-1,1-2,2-1.9,2.1  c0.7,0.9,1.6,1.8,2.5,2.5c0.1,0.1,1.7-1.2,1.6-1.5C315.9,140.4,315,139.6,314,138.4z M306.8,216c0.3,0.3,0.6,0.6,0.9,0.9  c1.1-0.6,2.3-1,3.4-1.7c0.2-0.1,0-1.5-0.4-1.7c-0.7-0.4-1.9-0.6-2.3-0.3C307.7,213.8,307.3,215,306.8,216z M203.6,180.5  c-1.2-1.1-2-1.8-2.9-2.3c-0.1-0.1-1.5,1.4-1.4,1.6c0.5,0.9,1.3,1.7,2.2,2.3C201.6,182.1,202.5,181.3,203.6,180.5z M163.2,322.5  c-1.3-1-2-1.9-2.7-1.9c-0.7,0-1.4,0.8-2.2,1.3c0.6,0.7,1.1,1.7,1.9,1.9C160.9,324,161.8,323.2,163.2,322.5z M155.7,342.2  c-1.3-0.8-2.2-1.7-2.6-1.5c-0.9,0.4-1.6,1.3-2.3,2c0.6,0.5,1.3,1.4,1.9,1.3C153.5,343.9,154.3,343.1,155.7,342.2z M180.9,302.2  c0.7-1.4,1.5-2.2,1.3-2.7c-0.4-0.9-1.3-1.6-1.9-2.3c-0.5,0.5-1.6,1.3-1.5,1.6C179.1,299.8,179.9,300.6,180.9,302.2z M123.1,158.5  c-0.9,1-2,1.9-1.8,2.1c0.4,0.8,1.2,1.4,1.9,2.1c0.6-0.6,1.6-1.1,1.6-1.7C124.8,160.4,123.9,159.7,123.1,158.5z M147,151.6  c0.9-1.3,1.6-1.9,1.8-2.7c0.1-0.2-1.1-1.2-1.6-1.1c-0.6,0.1-1.6,0.8-1.7,1.4C145.4,149.7,146.2,150.4,147,151.6z M340.4,156.3  c-0.7,0.9-1.5,1.6-1.4,1.9c0.3,0.7,1,1.4,1.7,1.5c0.4,0.1,1.5-1,1.5-1.3C342,157.7,341.2,157.2,340.4,156.3z"/>
</svg>