<svg height="100%" stroke-miterlimit="10" style="fill-rule:nonzero;clip-rule:evenodd;stroke-linecap:round;stroke-linejoin:round;" version="1.1" viewBox="0 0 500 500" width="100%" xml:space="preserve" xmlns="http://www.w3.org/2000/svg"  xmlns:xlink="http://www.w3.org/1999/xlink">
<defs/>
<clipPath id="ArtboardFrame">
<rect height="500" width="500" x="0" y="0"/>
</clipPath>
<path d="M8.29144 250C8.29144 115.226 117.547 5.9706 252.321 5.9706C387.095 5.9706 496.35 115.226 496.35 250C496.35 384.774 387.095 494.029 252.321 494.029C117.547 494.029 8.29144 384.774 8.29144 250Z" fill="#ffffff" fill-rule="evenodd" opacity="1" stroke="#aa7d50" stroke-linecap="butt" stroke-linejoin="miter" stroke-width="10"/>
<path d="M191.755 120.044L191.755 192.587C202.924 186.59 213.623 180.594 223.735 174.716C234.081 168.602 244.427 162.605 254.656 156.844C266.179 163.076 277.466 169.307 288.753 175.539C300.04 181.77 311.327 188.236 322.849 195.056L344.835 208.224L344.835 311.571C341.073 313.922 337.31 316.156 333.666 318.155C329.903 320.154 326.141 322.388 322.026 324.739C310.856 330.97 299.922 337.319 288.517 343.786C277.348 350.253 266.179 356.837 255.009 363.538C239.96 354.72 224.91 346.137 209.978 337.437C195.047 328.854 179.997 320.154 164.948 311.336L164.948 205.049C164.948 188.119 165.065 171.071 165.065 154.14C165.183 137.21 165.183 120.867 164.948 105.465L164.948 104.877C174.824 109.815 183.76 114.753 191.755 120.044ZM255.479 186.708C244.78 192.704 234.081 198.7 223.617 204.814C213.153 211.046 202.454 217.277 191.755 223.391L191.755 295.934C202.454 302.165 213.153 308.396 223.617 314.275C234.081 320.271 244.545 326.385 254.892 332.617C265.591 326.62 276.29 320.624 286.754 314.51C297.218 308.396 307.917 302.047 318.616 295.934L318.616 223.391C307.917 217.16 297.453 211.163 287.107 205.049C276.643 198.936 266.179 192.822 255.479 186.708Z" fill="#aa7d50" fill-rule="evenodd" opacity="1" stroke="none"/>
</svg>
