<?xml version="1.0" encoding="utf-8"?>
<svg viewBox="18.827 12.176 64 64" xmlns="http://www.w3.org/2000/svg">
  <g transform="matrix(1, 0, 0, 1, 3.33503, 0)">
    <path d="M 15.492 44.176 C 15.492 50.505 17.368 56.692 20.885 61.954 C 24.401 67.217 29.399 71.318 35.246 73.74 C 41.093 76.162 47.527 76.796 53.735 75.561 C 59.942 74.327 65.644 71.279 70.119 66.804 C 74.594 62.328 77.642 56.626 78.877 50.419 C 80.112 44.212 79.478 37.778 77.056 31.93 C 74.634 26.083 70.532 21.085 65.27 17.569 C 60.008 14.053 53.821 12.176 47.492 12.176 C 39.005 12.176 30.865 15.548 24.864 21.549 C 18.863 27.55 15.492 35.689 15.492 44.176 L 15.492 44.176 Z" fill="#121122"/>
    <path fill-rule="evenodd" clip-rule="evenodd" d="M 25.147 36.068 C 24.756 38.585 25.216 41.175 25.694 43.664 C 25.879 44.062 26.282 44.33 26.78 44.501 C 25.759 46.656 25.198 49.005 25.198 51.465 C 25.198 61.881 35.282 70.333 47.719 70.333 C 60.156 70.333 70.247 61.901 70.247 51.465 C 70.247 48.979 69.675 46.607 68.634 44.435 C 69.051 44.263 69.382 44.014 69.545 43.664 C 70.023 41.175 70.482 38.585 70.091 36.068 C 69.725 32.69 68.565 31.659 65.085 32.525 C 63.314 32.936 60.98 33.981 59.185 35.21 C 55.826 33.543 51.905 32.587 47.719 32.587 C 43.485 32.587 39.523 33.566 36.14 35.27 C 34.334 34.015 31.953 32.942 30.155 32.525 C 26.672 31.659 25.515 32.69 25.147 36.068 Z M 38.26 50.96 C 35.62 49.796 31.108 50.091 31.108 50.091 C 31.108 50.091 31.319 54.338 33.909 55.78 C 36.981 57.488 42.693 56.642 42.693 56.642 C 42.693 56.642 42.208 52.692 38.26 50.951 L 38.26 50.96 Z M 52.928 56.649 C 52.928 56.649 58.64 57.495 61.712 55.787 C 64.302 54.345 64.514 50.098 64.514 50.098 C 64.514 50.098 60.002 49.803 57.362 50.967 C 53.413 52.692 52.928 56.633 52.928 56.633 L 52.928 56.649 Z M 46.592 59.643 C 46.592 59.956 47.173 60.21 47.89 60.21 C 48.606 60.21 49.188 59.956 49.188 59.643 C 49.188 59.33 48.606 59.077 47.89 59.077 C 47.173 59.077 46.592 59.321 46.592 59.643 Z" fill="#F2F4F8"/>
    <path fill-rule="evenodd" clip-rule="evenodd" d="M 73.385 57.028 C 71.277 56.214 69.038 55.792 66.779 55.783 L 66.782 55.783 C 66.21 55.783 66.21 54.894 66.782 54.894 C 69.122 54.902 71.441 55.336 73.625 56.176 C 73.735 56.21 73.829 56.285 73.886 56.385 C 73.943 56.486 73.96 56.604 73.932 56.717 C 73.901 56.83 73.825 56.926 73.723 56.985 C 73.62 57.043 73.499 57.058 73.385 57.028 Z M 21.961 56.196 C 24.146 55.356 26.465 54.922 28.805 54.914 L 28.805 54.919 C 29.378 54.919 29.376 55.808 28.805 55.808 C 26.545 55.816 24.306 56.238 22.197 57.053 C 22.084 57.083 21.963 57.067 21.861 57.009 C 21.759 56.951 21.684 56.855 21.652 56.741 C 21.623 56.628 21.64 56.508 21.697 56.407 C 21.755 56.305 21.849 56.23 21.961 56.196 Z M 26.492 58.743 C 27.586 58.395 28.723 58.204 29.87 58.176 C 30.439 58.179 30.438 59.065 29.867 59.065 C 28.821 59.092 27.783 59.267 26.786 59.582 C 25.858 59.854 24.796 60.238 24.119 60.866 C 23.7 61.255 23.07 60.628 23.492 60.238 C 24.315 59.477 25.447 59.058 26.492 58.743 Z M 29.87 58.176 L 29.87 58.176 L 29.867 58.176 L 29.87 58.176 Z M 30.884 60.397 C 29.992 60.778 29.135 61.235 28.322 61.764 C 27.5 62.27 26.778 62.921 26.189 63.685 C 26.129 63.787 26.113 63.908 26.143 64.022 C 26.172 64.136 26.246 64.233 26.347 64.293 C 26.449 64.35 26.57 64.366 26.683 64.336 C 26.797 64.307 26.895 64.235 26.957 64.135 C 27.456 63.445 28.173 62.91 28.882 62.453 C 29.66 61.959 30.477 61.528 31.325 61.165 C 31.426 61.105 31.499 61.007 31.529 60.893 C 31.559 60.78 31.543 60.659 31.485 60.557 C 31.423 60.457 31.326 60.385 31.212 60.355 C 31.099 60.326 30.979 60.34 30.877 60.397 L 30.884 60.397 Z M 65.714 59.047 C 66.76 59.073 67.797 59.247 68.795 59.563 C 69.31 59.709 69.814 59.895 70.3 60.119 C 70.721 60.303 71.111 60.549 71.458 60.848 C 71.877 61.236 72.507 60.61 72.087 60.219 C 71.269 59.46 70.144 59.038 69.092 58.724 C 67.998 58.376 66.861 58.185 65.714 58.158 C 65.141 58.158 65.14 59.047 65.714 59.047 Z M 66.695 62.427 C 65.926 61.951 65.122 61.535 64.29 61.182 L 64.29 61.173 C 64.189 61.113 64.116 61.016 64.086 60.902 C 64.056 60.788 64.072 60.668 64.13 60.565 C 64.192 60.467 64.29 60.395 64.403 60.366 C 64.517 60.336 64.637 60.351 64.74 60.407 C 66.471 61.163 68.293 62.133 69.426 63.696 C 69.484 63.798 69.501 63.919 69.471 64.033 C 69.442 64.146 69.368 64.244 69.268 64.304 C 69.165 64.361 69.045 64.376 68.932 64.346 C 68.818 64.316 68.721 64.244 68.66 64.144 C 68.148 63.438 67.424 62.891 66.695 62.427 Z" fill="#F2F4F8"/>
    <path d="M 18.583 45.929 C 18.994 45.289 22.603 43.364 27.069 42.221 C 28.032 39.483 29.222 36.831 30.624 34.29 C 30.606 34.29 34.196 27.847 34.18 27.844 C 33.15 27.375 32.162 26.822 31.225 26.189 C 31.066 26.067 30.923 25.926 30.797 25.771 C 30.701 25.614 30.652 25.433 30.654 25.25 C 30.654 25.101 30.866 24.834 30.96 24.717 C 31.201 24.434 31.466 24.173 31.753 23.938 C 32.437 23.378 33.156 22.861 33.906 22.391 C 34.261 22.157 34.631 21.927 34.996 21.696 C 37.556 20.066 38.958 18.839 41.303 17.492 C 43.543 16.208 44.631 15.417 47.229 15.55 C 50.493 15.55 58.606 25.886 62.265 31.213 C 64.459 34.413 67.403 40.174 68.487 42.341 C 68.747 42.407 68.981 42.469 69.198 42.533 C 72.526 43.533 75.791 44.997 76.589 45.929 C 77.3 46.757 74.192 47.127 71.129 47.661 C 68.066 48.194 57.675 48.459 47.689 48.526 C 37.703 48.594 26.048 48.26 23.511 47.86 C 20.974 47.46 18.073 46.727 18.583 45.929 Z" fill="#6665DD"/>
    <path d="M 65.703 37.001 C 65.703 37.001 59.125 35.353 47.536 35.353 C 35.092 35.353 29.099 37.273 29.099 37.273 C 29.099 37.273 28.388 38.624 28.078 39.406 C 27.769 40.189 27.069 42.221 27.069 42.221 C 27.069 42.221 36.123 40.599 47.71 40.599 C 54.688 40.628 61.652 41.217 68.535 42.359 C 68.535 42.359 67.485 39.901 66.855 38.852 C 66.226 37.803 65.703 37.001 65.703 37.001 Z" fill="#FF99A5"/>
    <path d="M 26.555 23.097 C 27.308 22.987 28.332 25.294 28.332 25.294 C 28.332 25.294 30.704 24.656 31.074 25.294 C 31.444 25.933 29.406 27.465 29.406 27.465 C 29.406 27.465 30.636 29.629 30.247 30.078 C 29.858 30.528 27.664 29.163 27.664 29.163 C 27.664 29.163 25.991 31.047 25.445 30.763 C 24.9 30.478 25.518 28.023 25.518 28.023 C 25.518 28.023 23.152 27.017 23.314 26.42 C 23.476 25.822 25.941 25.641 25.941 25.641 C 25.941 25.641 25.803 23.207 26.555 23.097 Z" fill="#FFE600"/>
  </g>
</svg>