<?xml version="1.0" encoding="utf-8"?>
<svg viewBox="41.339 36.403 19.6 22.375" xmlns="http://www.w3.org/2000/svg">
  <path id="Path_1" class="st0" d="M 51.139 36.403 C 52.539 37.103 54.039 37.603 55.539 38.103 C 56.539 38.403 57.539 38.603 58.639 38.803 C 59.139 38.903 59.539 38.903 60.039 39.003 C 60.239 39.003 60.439 39.003 60.639 39.103 C 60.939 39.103 60.939 39.203 60.939 39.503 C 60.939 40.103 60.939 40.803 60.939 41.403 C 60.939 41.603 60.939 41.903 60.939 42.103 C 60.939 42.503 60.939 42.903 60.839 43.303 C 60.739 44.803 60.539 46.303 60.239 47.803 C 60.039 48.903 59.639 50.003 59.239 51.003 C 58.939 51.703 58.639 52.403 58.239 53.103 C 57.739 54.003 57.139 54.803 56.439 55.503 C 55.039 56.903 53.439 58.003 51.639 58.703 C 51.439 58.803 51.139 58.803 50.939 58.703 C 49.239 58.103 47.739 57.103 46.439 55.903 C 46.339 55.803 46.139 55.703 46.039 55.503 C 46.039 55.503 45.939 55.403 45.939 55.403 C 46.039 55.403 46.139 55.403 46.239 55.403 L 49.639 55.403 C 49.739 55.403 49.839 55.403 49.839 55.403 C 50.139 55.403 50.339 55.203 50.339 54.903 C 50.339 54.903 50.339 54.803 50.339 54.803 C 50.339 54.503 50.139 54.303 49.939 54.203 C 49.939 54.203 49.939 54.203 49.839 54.203 C 49.739 54.203 49.539 54.203 49.439 54.203 C 48.539 54.203 47.739 54.203 46.839 54.203 C 46.339 54.203 45.739 54.203 45.239 54.203 C 45.039 54.203 44.939 54.103 44.839 54.003 C 44.339 53.303 43.939 52.603 43.539 51.803 C 43.539 51.803 43.539 51.703 43.539 51.703 C 43.639 51.703 43.739 51.703 43.739 51.703 L 47.939 51.703 C 48.039 51.703 48.139 51.703 48.239 51.703 C 48.339 51.703 48.539 51.603 48.539 51.503 C 48.639 51.303 48.639 51.003 48.539 50.803 C 48.439 50.603 48.239 50.503 48.039 50.503 C 47.739 50.503 47.439 50.503 47.139 50.503 C 46.039 50.503 44.939 50.503 43.739 50.503 C 43.439 50.503 43.239 50.503 42.939 50.503 C 42.839 50.503 42.739 50.403 42.739 50.303 C 42.639 49.803 42.439 49.403 42.339 48.903 C 42.239 48.603 42.139 48.403 42.139 48.103 C 42.139 48.003 42.139 48.003 42.139 47.903 L 50.639 47.903 C 50.739 47.903 50.839 47.903 50.939 47.903 C 51.039 47.903 51.139 47.803 51.239 47.803 C 51.439 47.503 51.439 47.103 51.239 46.903 C 51.139 46.803 51.039 46.803 51.039 46.803 C 50.639 46.803 50.339 46.803 49.939 46.803 C 49.639 46.803 49.439 46.803 49.139 46.803 C 49.039 46.803 48.939 46.803 48.839 46.803 C 46.739 46.803 44.639 46.803 42.639 46.803 C 42.439 46.803 42.139 46.803 41.839 46.803 L 41.439 44.003 L 47.739 44.003 C 47.839 44.003 47.939 44.003 48.039 44.003 C 48.239 44.003 48.339 43.903 48.439 43.703 C 48.539 43.503 48.539 43.403 48.439 43.203 C 48.439 43.003 48.139 42.803 47.939 42.803 C 47.839 42.803 47.839 42.803 47.739 42.803 L 41.539 42.803 L 41.339 42.803 C 41.339 42.703 41.339 42.703 41.339 42.603 C 41.339 42.403 41.339 42.303 41.339 42.103 C 41.339 41.503 41.339 41.003 41.339 40.403 C 41.339 40.103 41.339 39.903 41.339 39.603 C 41.339 39.403 41.439 39.303 41.639 39.303 C 41.939 39.303 42.339 39.203 42.639 39.203 C 44.039 39.003 45.339 38.803 46.739 38.403 C 47.739 38.103 48.639 37.703 49.539 37.303 C 49.839 37.203 50.139 37.103 50.439 36.903 C 50.639 36.803 50.839 36.703 51.039 36.603 L 51.139 36.403 Z" style="fill: rgb(106, 122, 255);"/>
</svg>