<svg width="183" height="186" viewBox="0 0 183 186" fill="none" xmlns="http://www.w3.org/2000/svg">
<circle cx="91.9691" cy="91.5392" r="89.3201" transform="rotate(-180 91.9691 91.5392)" fill="url(#paint0_linear_15_2379)" stroke="black" stroke-width="3.42357"/>
<path d="M22.2144 85.6978L17.6342 90.278L13.054 85.6978L17.6342 81.1176L22.2144 85.6978Z" fill="black"/>
<path d="M170.789 84.6449L166.209 89.2251L161.628 84.6449L166.209 80.0647L170.789 84.6449Z" fill="black"/>
<path d="M10.3224 101.036L28.435 96.5203L31.6607 109.458L29.0732 110.103L29.7183 112.691L27.1308 113.336L27.7759 115.923L20.0134 117.859L19.3682 115.271L16.7807 115.916L16.1356 113.329L13.5481 113.974L10.3224 101.036ZM14.2002 105.566L15.4905 110.741L18.078 110.096L18.7231 112.684L26.4856 110.748L25.8405 108.161L28.428 107.516L27.1377 102.34L14.2002 105.566Z" fill="black"/>
<path d="M19.0456 129.117L21.2821 127.665L19.8297 125.428L31.0122 118.166L32.4646 120.403L34.7011 118.951L41.9631 130.133L39.7266 131.585L41.179 133.822L29.9965 141.084L28.5441 138.848L26.3076 140.3L19.0456 129.117ZM22.7345 129.901L27.0917 136.611L38.2742 129.349L33.917 122.639L22.7345 129.901Z" fill="black"/>
<path d="M37.0834 152.008L38.7617 149.936L36.6892 148.258L38.3675 146.185L36.295 144.507L41.3297 138.29L43.4021 139.968L45.0803 137.896L47.1528 139.574L48.831 137.501L59.1932 145.892L57.515 147.965L49.2252 141.252L47.547 143.324L45.4746 141.646L40.4399 147.864L42.5123 149.542L40.8341 151.614L44.979 154.971L48.3354 150.826L46.263 149.148L47.9412 147.075L54.1585 152.11L47.4456 160.399L37.0834 152.008Z" fill="black"/>
<path d="M57.0473 165.286L63.4318 147.745L80.9731 154.129L80.061 156.635L67.5315 152.075L65.7074 157.086L75.731 160.735L74.8189 163.241L64.7953 159.592L62.9712 164.604L75.5007 169.164L74.5886 171.67L57.0473 165.286Z" fill="black"/>
<path d="M87.4067 172.952V170.286H84.74V167.619H82.0732V159.619H84.74V156.952H87.4067V154.285H98.0736V156.952H100.74V159.619H95.4069V156.952H90.0734V159.619H87.4067V167.619H90.0734V170.286H95.4069V167.619H100.74V170.286H98.0736V172.952H87.4067Z" fill="black"/>
<path d="M110.826 171.069L104.349 153.562L109.351 151.712L112.127 159.215L119.63 156.439L116.854 148.935L121.856 147.085L128.333 164.592L123.331 166.443L120.555 158.94L113.052 161.716L115.828 169.219L110.826 171.069Z" fill="black"/>
<path d="M136.578 159.935L128.187 149.573L130.259 147.895L128.581 145.822L130.654 144.144L128.975 142.072L135.193 137.037L136.871 139.109L138.943 137.431L140.622 139.504L142.694 137.825L151.085 148.188L146.94 151.544L143.584 147.399L137.366 152.434L140.723 156.579L136.578 159.935ZM135.688 150.361L141.906 145.327L138.549 141.182L136.477 142.86L134.798 140.788L132.726 142.466L134.404 144.538L132.332 146.217L135.688 150.361Z" fill="black"/>
<path d="M156.424 141.548L154.188 140.096L157.092 135.623L145.91 128.361L143.005 132.834L140.769 131.382L149.483 117.962L151.72 119.415L148.815 123.888L159.997 131.15L162.902 126.677L165.139 128.129L156.424 141.548Z" fill="black"/>
<path d="M168.753 119.306L150.641 114.79L151.931 109.615L154.519 110.26L155.164 107.672L157.751 108.317L158.396 105.73L160.984 106.375L161.629 103.788L153.866 101.852L155.157 96.6772L173.269 101.193L171.979 106.368L166.804 105.078L166.159 107.665L163.571 107.02L162.926 109.608L160.339 108.963L159.694 111.55L170.044 114.131L168.753 119.306Z" fill="black"/>
<path d="M102.545 35.2263C102.016 35.7876 101.569 36.2706 101.229 36.6426C97.295 35.7839 92.545 35.3395 88.5537 35.3395C85.538 35.3395 82.5801 35.5928 79.7004 36.0796C75.3671 34.7842 71.9537 33.5504 67.8001 29.1852C67.4731 28.8415 67.1238 28.4685 66.7552 28.0748C64.6253 25.8001 61.8495 22.8356 58.9986 20.8644C57.3166 19.7015 55.4137 18.7396 53.4277 18.5569C51.3216 18.3631 49.3046 19.0651 47.6107 20.8634C44.6203 24.0381 41.9758 30.3418 40.4341 38.4275C38.8983 46.4818 38.4049 56.5688 39.8809 67.7257C37.2563 73.9928 35.8072 80.8725 35.8072 88.086C35.8072 98.8596 39.0392 108.884 44.5868 117.235C53.0001 135.183 71.2315 147.619 92.3712 147.619C117.02 147.619 137.715 130.713 143.504 107.867C146.717 102.053 148.516 95.5785 148.516 88.7519C148.516 74.8583 141.083 62.4944 129.502 54.0913C126.163 47.6811 126.015 43.1847 125.854 38.2801C125.824 37.3672 125.793 36.4401 125.741 35.4839C125.689 34.5079 125.663 33.6554 125.638 32.8274C125.619 32.2187 125.601 31.6232 125.573 31.0018C125.513 29.654 125.407 28.3211 125.1 27.1598C124.787 25.9736 124.22 24.7964 123.115 23.9501C122.017 23.1088 120.64 22.7879 119.097 22.7879C118.093 22.7879 117.081 23.1434 116.185 23.5754C115.258 24.0224 114.285 24.6363 113.316 25.3301C111.379 26.7186 109.305 28.5406 107.424 30.3213C105.535 32.1096 103.803 33.893 102.545 35.2263Z" fill="url(#paint1_linear_15_2379)" stroke="black" stroke-width="3.70045"/>
<path fill-rule="evenodd" clip-rule="evenodd" d="M39.592 102.033C41.054 107.175 43.3042 111.986 46.2037 116.326C54.2977 133.715 71.9267 145.769 92.3712 145.769C116.236 145.769 136.265 129.344 141.769 107.182C144.913 101.569 146.666 95.3278 146.666 88.7523C146.666 82.1685 144.909 75.9199 141.757 70.3019C139.804 69.6444 138.118 69.6415 136.789 70.3808C134.737 71.5214 133.76 74.3024 133.751 78.2807C133.746 80.7994 131.15 82.787 128.739 82.0582C121.721 79.9369 114.916 80.2174 109.219 83.3843C107.784 84.1822 106.47 85.1354 105.277 86.2277C99.8208 91.2227 87.4576 94.4479 81.7148 89.7855C70.615 80.7739 58.7108 77.4502 50.0659 82.2566C43.7821 85.7503 40.2875 92.9461 39.592 102.033Z" fill="white"/>
<path fill-rule="evenodd" clip-rule="evenodd" d="M88.9774 134.316C72.8603 135.801 56.7034 124.115 45.4087 114.527C53.0981 132.877 71.2291 145.768 92.3709 145.768C116.18 145.768 136.17 129.42 141.73 107.336L140.669 109.725C139.596 112.141 136.588 112.981 134.419 111.472V111.472C134.089 113.238 133.381 114.895 132.368 116.381C129.529 119.974 125.838 122.315 121.265 123.162C120.23 123.335 119.161 123.427 118.066 123.427C115.052 123.427 112.226 122.735 109.791 121.527C110.371 123.451 105.095 132.832 88.9774 134.316Z" fill="#F7ECDF"/>
<path d="M52.034 54.9951C49.1221 45.4602 49.8673 33.7868 52.0341 27.0493C55.8281 39.7477 65.0178 47.2218 65.0178 47.2218C61.1852 48.0538 55.7097 51.2757 52.034 54.9951Z" fill="black"/>
<path d="M111.648 88.7217C114.529 82.5758 131.458 81.4782 134.127 88.7217C135.611 92.7509 129.63 101.916 125.644 102.506C119.918 103.354 108.467 95.5078 111.648 88.7217Z" fill="black"/>
<path opacity="0.5" d="M94.571 59.2265C92.2707 61.0132 83.7136 61.164 82.8563 58.5489C81.999 55.9338 87.5181 50.3052 91.5378 52.0849C94.8894 53.5689 97.5446 56.9168 94.571 59.2265Z" fill="white"/>
<path opacity="0.5" d="M121.343 55.7707C119.747 58.1629 115.459 57.8971 113.753 55.7707C112.048 53.6442 112.311 49.6053 116.759 49.9341C120.467 50.2082 122.415 54.1628 121.343 55.7707Z" fill="white"/>
<path d="M108.904 123.185C107.948 122.335 109.145 121.243 110.309 121.774C112.623 122.829 115.263 123.427 118.066 123.427C125.27 123.427 131.4 119.477 133.678 113.961C133.885 113.462 134.628 113.512 134.628 114.052C134.628 121.262 127.911 127.106 119.625 127.106C115.425 127.106 111.627 125.605 108.904 123.185Z" fill="black"/>
<path fill-rule="evenodd" clip-rule="evenodd" d="M154.021 55.8524L48.7215 68.3085L49.3194 73.3629L65.3247 71.4696L65.9226 76.5239L70.9768 75.926L71.5747 80.9803L76.6302 80.3823L76.6296 80.3825L77.2274 85.4369L94.0754 83.444L93.4775 78.3896L93.4768 78.3895L98.5315 77.7916L97.9336 72.7372L102.988 72.1393L102.39 67.0851L154.619 60.9068L154.021 55.8524ZM112.499 65.8893L149.565 61.5048L150.163 66.5592L113.097 70.9437L112.499 65.8893ZM145.108 67.1572L118.151 70.3459L118.749 75.4003L123.806 74.8022L123.804 74.8027L124.402 79.8571L141.25 77.8641L140.652 72.8097L140.65 72.8096L145.706 72.2116L145.108 67.1572Z" fill="black"/>
<rect width="5.08963" height="5.08963" transform="matrix(-0.993076 0.117473 0.117473 0.993076 144.509 62.1024)" fill="white"/>
<rect width="5.08963" height="5.08963" transform="matrix(-0.993076 0.117473 0.117473 0.993076 140.053 67.7535)" fill="white"/>
<rect width="5.08963" height="5.08963" transform="matrix(-0.993076 0.117473 0.117473 0.993076 97.3362 67.6797)" fill="white"/>
<rect width="5.08963" height="5.08963" transform="matrix(-0.993076 0.117473 0.117473 0.993076 92.8804 73.3308)" fill="white"/>
<path d="M138.388 92.332C142.565 97.8386 137.989 107.813 130.058 107.666C128.329 107.634 126.563 108.279 125.378 109.537C119.116 116.19 105.918 117.025 101.831 107.825C101.419 106.897 100.761 106.071 99.8524 105.617L96.6106 103.996" stroke="black" stroke-width="3.70045" stroke-linecap="round"/>
<path d="M116.544 115.189C126.751 119.288 132.763 111.4 132.237 108.444L125.15 109.254L116.544 115.189Z" fill="black"/>
<defs>
<linearGradient id="paint0_linear_15_2379" x1="91.9691" y1="0.507324" x2="91.9691" y2="182.571" gradientUnits="userSpaceOnUse">
<stop stop-color="#7774F4"/>
<stop offset="0.714952" stop-color="#9157F9"/>
<stop offset="1" stop-color="#B133FF"/>
</linearGradient>
<linearGradient id="paint1_linear_15_2379" x1="92.1613" y1="20.3759" x2="92.1613" y2="145.768" gradientUnits="userSpaceOnUse">
<stop stop-color="#FBF476"/>
<stop offset="0.449777" stop-color="#FFA725"/>
<stop offset="1" stop-color="#FFA725"/>
</linearGradient>
</defs>
</svg>
