<?xml version="1.0" encoding="utf-8"?>
<!-- Generator: Adobe Illustrator 24.0.1, SVG Export Plug-In . SVG Version: 6.00 Build 0)  -->
<svg version="1.1" id="Layer_1" xmlns="http://www.w3.org/2000/svg" xmlns:xlink="http://www.w3.org/1999/xlink" x="0px" y="0px"
	 viewBox="0 0 96 96" style="enable-background:new 0 0 96 96;" xml:space="preserve">
<style type="text/css">
	.st0{fill:#13B4EB;}
	.st1{fill:#FEFEFE;}
</style>
<path class="st0" d="M48,0c26.5,0,48,21.5,48,48S74.5,96,48,96S0,74.5,0,48S21.5,0,48,0"/>
<path class="st0" d="M61.9,60.8c3.8-4,5.5-8.8,5.2-14.2s-2.5-9.9-6.6-13.4c-4-3.4-8.6-4.9-13.8-4.6c-5.1,0.3-9.4,2.5-12.9,6.3
	c-3.2,3.6-4.9,7.8-4.9,12.6c0,10.8,8.4,19.2,17.2,19.3C53.5,66.8,58.2,64.8,61.9,60.8z"/>
<g>
	<path class="st1" d="M79.4,24.3c-1.1,1.1-2,2.1-3.1,3.2c-1.2,1.3-2.5,2.7-3.8,4c-0.6,0.6-1.1,1.2-1.8,1.8c-0.3,0.3-0.4,0.4-0.1,0.8
		c1,1.5,1.8,3.2,2.3,4.8c0.5,1.5,1,3.1,1.2,4.7c0.4,2,0.4,4.1,0.3,6.1c-0.2,1.8-0.5,3.7-1.1,5.4c-0.7,2.5-1.8,4.7-3.1,6.8
		c-0.1,0.2-0.1,0.3,0.1,0.4c1.2,1.2,2.5,2.4,3.7,3.6c1.4,1.3,2.8,2.7,4.2,4c0.4,0.4,0.7,0.7,1.1,1.1c0.2,0.2,0.2,0.3,0,0.5
		c-1.1,1.1-2.1,2.2-3.2,3.3c-1.4,1.4-2.7,2.9-4.1,4.3c-0.2,0.2-0.3,0.1-0.4,0c-0.9-0.8-1.8-1.7-2.6-2.5c-1.3-1.2-2.6-2.5-4-3.8
		c-0.6-0.5-1.1-1.1-1.8-1.7c-0.4-0.4-0.7-0.6-1.1-1c-0.2-0.2-0.3-0.1-0.4,0c-1.2,0.8-2.5,1.4-3.8,1.9c-1.7,0.7-3.4,1.2-5.3,1.6
		c-1.9,0.4-3.9,0.5-5.8,0.4c-2-0.1-4-0.4-6.1-0.9c-1.7-0.4-3.2-1.1-4.7-1.8c-1-0.4-1.9-1-2.8-1.6c-0.3-0.2-0.4-0.2-0.6,0.1
		c-1.1,1.1-2.1,2.2-3.2,3.3c-1.6,1.7-3.2,3.3-4.7,5c-0.3,0.3-0.5,0.5-0.8,0.8c-0.2,0.2-0.3,0.2-0.4,0c-1.1-1.1-2.2-2.1-3.3-3.2
		c-1.4-1.4-2.8-2.7-4.3-4c-0.3-0.2-0.2-0.4,0-0.4c0.7-0.7,1.3-1.4,2-2.1c1.3-1.3,2.5-2.7,3.9-4c0.7-0.8,1.5-1.5,2.2-2.2
		c0.1-0.2,0.3-0.3,0.4-0.4c0.3-0.3,0.7-0.4,0.7-0.8c0-0.4-0.3-0.6-0.4-1c-1.4-2.5-2.5-5.1-3-7.9c-0.4-2.2-0.6-4.4-0.4-6.6
		c0.2-3.2,0.9-6.2,2.2-9.1c0.5-1.2,1.1-2.4,1.8-3.5c0.2-0.4,0.2-0.5-0.1-0.8c-1.8-1.7-3.5-3.3-5.3-5c-1.1-1-2-1.9-3-2.9
		c-0.2-0.2-0.3-0.3,0-0.4c1.1-1.1,2-2.1,3.1-3.2c1.4-1.5,2.8-2.9,4.1-4.4c0.2-0.3,0.4-0.3,0.5,0c1.4,1.3,2.8,2.7,4.2,4
		c1.4,1.3,2.7,2.6,4.1,4c0.5,0.5,0.5,0.5,1.2,0.1c1.7-1.1,3.5-1.8,5.4-2.5c2.4-0.8,4.8-1.1,7.3-1.2c3.3-0.1,6.5,0.4,9.6,1.4
		c2,0.7,3.9,1.6,5.6,2.7c0.3,0.2,0.4,0.1,0.6-0.1c1.6-1.7,3.2-3.3,4.7-5c1.1-1.1,2.2-2.3,3.3-3.5c0.3-0.3,0.4-0.3,0.6,0
		c1.4,1.4,2.9,2.8,4.4,4.1C77.1,22.1,78.3,23.2,79.4,24.3z M31.9,47.6c0,9,7.2,16.2,16.2,16.2s16.2-7.2,16.2-16.1S57,31.5,48.1,31.5
		C39.2,31.6,32,38.7,31.9,47.6z"/>
	<path class="st1" d="M42,47.6c0-2,0-4.1,0-6.1c0-0.4,0.1-0.5,0.4-0.7c1.8-1,3.5-2,5.3-3c0.3-0.2,0.4-0.2,0.7,0c1.8,1.1,3.5,2,5.4,3
		c0.3,0.2,0.4,0.4,0.4,0.7c0,4.1,0,8.3,0,12.4c0,0.4-0.1,0.5-0.4,0.7c-1.8,1-3.5,2-5.3,3c-0.3,0.2-0.4,0.2-0.7,0c-1.8-1-3.5-2-5.3-3
		c-0.3-0.2-0.4-0.4-0.4-0.7C42,51.7,42,49.7,42,47.6z M43.2,53.3c0,0.3,0.1,0.4,0.4,0.5c1.4,0.8,2.8,1.6,4.2,2.5
		c0.3,0.2,0.4,0.2,0.6,0c1.4-0.8,2.8-1.7,4.2-2.5c0.3-0.2,0.4-0.3,0.4-0.5c0-1.3,0-2.7,0-4c0-0.4-0.1-0.4-0.4-0.3
		c-1.3,0.8-2.7,1.6-4,2.4c-0.3,0.2-0.4,0.2-0.7,0c-1.5-0.8-2.8-1.6-4.2-2.5c-0.3-0.2-0.4-0.2-0.4,0.2c0,0.7,0,1.4,0,2.1
		C43.2,51.9,43.2,52.6,43.2,53.3z M46.4,42.8c0.5,0.4,1.1,0.8,1.7,0.9c0.6,0,1.1-0.5,1.7-0.9c0.8-0.4,1.7-1,2.5-1.4
		c-0.1-0.1-0.1-0.1-0.1-0.2c-1.2-0.8-2.5-1.5-3.8-2.3c-0.2-0.1-0.4,0-0.5,0.1c-1,0.6-2,1.2-3,1.8c-0.3,0.2-0.5,0.4-0.9,0.5
		C44.8,42,45.6,42.4,46.4,42.8z M43.2,42.5c0,1.3,0,2.6,0,3.9c0,0.3,0.2,0.2,0.3,0.1c1.1-0.6,2.1-1.2,3.3-1.9
		C45.6,43.8,44.5,43.2,43.2,42.5z M52.6,46.5c0.3,0.2,0.3-0.1,0.3-0.2c0-0.6,0-1.2,0-1.8c0-0.6,0-1.2,0-1.9
		c-1.2,0.7-2.4,1.4-3.6,2.1C50.5,45.2,51.6,45.8,52.6,46.5z M48.8,49.7c1.2-0.7,2.3-1.3,3.5-2c-1.2-0.7-2.4-1.3-3.5-2
		C48.8,47,48.8,48.4,48.8,49.7z M43.8,47.7c1.2,0.7,2.4,1.4,3.5,2c0-1.4,0-2.7,0-4.1C46.2,46.3,45.1,47,43.8,47.7z"/>
</g>
</svg>
