<svg width="120" height="120" viewBox="0 0 120 120" fill="none" xmlns="http://www.w3.org/2000/svg">
<mask id="mask0_1357_17954" style="mask-type:alpha" maskUnits="userSpaceOnUse" x="0" y="0" width="120" height="120">
<path d="M120 59.9975C120 93.136 93.1368 119.997 60.0004 119.997C26.8623 119.997 0 93.136 0 59.9975C0 26.8611 26.8623 -2.28882e-05 60.0004 -2.28882e-05C93.1368 -2.28882e-05 120 26.8611 120 59.9975Z" fill="#F0D681"/>
</mask>
<g mask="url(#mask0_1357_17954)">
<path d="M120 59.9974C120 93.1359 93.1368 119.997 60.0004 119.997C26.8623 119.997 0 93.1359 0 59.9974C0 26.861 26.8623 -0.000114441 60.0004 -0.000114441C93.1368 -0.000114441 120 26.861 120 59.9974Z" fill="#5346C2"/>
<path d="M33.804 59.9987H59.9938L47.588 38.5118L33.804 59.9987Z" fill="#FF51FC"/>
<path d="M47.588 81.4843L59.9938 59.9987H33.804L47.588 81.4843Z" fill="#DA01D6"/>
<path d="M47.588 81.4844L28.0181 78.4602L41.5322 91.9742L47.588 81.4844Z" fill="#A1009E"/>
<path d="M41.5322 91.9743L59.9938 96.9207L47.588 81.4844L41.5322 91.9743Z" fill="#C601C2"/>
<path d="M47.588 38.5117L59.9938 23.0763L41.5322 28.0227L47.588 38.5117Z" fill="#FFBFFE"/>
<path d="M41.5322 28.0227L28.0181 41.5381L47.588 38.5118L41.5322 28.0227Z" fill="#FFA3FD"/>
<path d="M47.588 38.5118L28.0181 41.5382L33.8039 59.9987L47.588 38.5118Z" fill="#FFF0FF"/>
<path d="M23.0706 59.9987L28.0181 78.4602L33.8039 59.9987H23.0706Z" fill="#FF51FC"/>
<path d="M28.0181 41.5382L23.0706 59.9987H33.8039L28.0181 41.5382Z" fill="#FFBFFE"/>
<path d="M33.8039 59.9987L28.0181 78.4602L47.588 81.4843L33.8039 59.9987Z" fill="#C601C2"/>
<path d="M72.3986 81.4843L59.9939 59.9987L47.588 81.4843H59.9939H72.3986Z" fill="#C601C2"/>
<path d="M86.1848 59.9987H59.9938L72.3986 81.4843L86.1848 59.9987Z" fill="#DA01D6"/>
<path d="M59.9939 38.5118H47.588L59.9939 59.9987L72.3986 38.5118H59.9939Z" fill="#FFBFFE"/>
<path d="M59.9939 81.4844H47.588L59.9939 96.9207L72.3986 81.4844H59.9939Z" fill="#A1009E"/>
<path d="M72.3986 38.5118L59.9938 59.9987H86.1848L72.3986 38.5118Z" fill="#C601C2"/>
<path d="M72.3986 38.5118L91.9696 41.5381L78.4554 28.0227L72.3986 38.5118Z" fill="#FF51FC"/>
<path d="M72.3986 38.5117L59.9939 23.0763L47.588 38.5117H59.9939H72.3986Z" fill="#FFF0FF"/>
<path d="M78.4554 28.0227L59.9938 23.0763L72.3986 38.5117L78.4554 28.0227Z" fill="#FFDEFF"/>
<path d="M72.3986 81.4844L59.9938 96.9207L78.4554 91.9743L72.3986 81.4844Z" fill="#C601C2"/>
<path d="M78.4554 91.9742L91.9696 78.4602L72.3986 81.4844L78.4554 91.9742Z" fill="#A1009E"/>
<path d="M72.3986 81.4843L91.9696 78.4602L86.1848 59.9987L72.3986 81.4843Z" fill="#C601C2"/>
<path d="M96.916 59.9987L91.9696 41.5382L86.1848 59.9987H96.916Z" fill="#C601C2"/>
<path d="M91.9696 78.4602L96.916 59.9987H86.1848L91.9696 78.4602Z" fill="#A1009E"/>
<path d="M86.1848 59.9987L91.9696 41.5382L72.3986 38.5118L86.1848 59.9987Z" fill="#E629E2"/>
</g>
</svg>
