<svg width="120" height="120" viewBox="0 0 120 120" fill="none" xmlns="http://www.w3.org/2000/svg">
<g clip-path="url(#clip0_660_4857)">
<mask id="mask0_660_4857" style="mask-type:alpha" maskUnits="userSpaceOnUse" x="0" y="0" width="120" height="120">
<path d="M120 59.9975C120 93.136 93.1368 119.997 60.0004 119.997C26.8623 119.997 0 93.136 0 59.9975C0 26.8611 26.8623 -2.28882e-05 60.0004 -2.28882e-05C93.1368 -2.28882e-05 120 26.8611 120 59.9975Z" fill="#F0D681"/>
</mask>
<g mask="url(#mask0_660_4857)">
<path d="M120 59.9975C120 93.136 93.1368 119.997 60.0004 119.997C26.8623 119.997 0 93.136 0 59.9975C0 26.8611 26.8623 -2.28882e-05 60.0004 -2.28882e-05C93.1368 -2.28882e-05 120 26.8611 120 59.9975Z" fill="#5346C2"/>
<g opacity="0.4">
<path d="M94.2963 73.1148C90.2323 77.4635 83.3542 80.335 72.3646 78.575C69.3803 78.1003 66.3744 75.0252 61.1258 75.0252C57.9972 75.0252 52.6299 78.1003 49.6457 78.575C37.8858 80.4557 30.7726 77.0047 26.8003 72.126C20.2149 84.8203 2.81243 132.639 40.3632 144.107C43.5098 145.068 60.4 144.107 60.4 144.107H60.5641C60.5641 144.107 80.6132 145.27 84.7306 144.107C118.411 134.615 101.564 87.5771 94.2963 73.1148Z" fill="url(#paint0_linear_660_4857)"/>
<path d="M104.916 117.421C102.242 118.151 98.1468 120.174 95.3722 125.781C92.3979 131.789 85.5434 134.013 79.6956 132.156C73.8537 130.296 71.6289 109.837 76.7747 100.718C82.9745 89.7386 37.1033 88.6766 45.2772 100.718C51.1566 109.38 48.2001 130.296 42.3563 132.156C36.5116 134.013 29.658 131.789 26.6807 125.781C24.0333 120.431 20.1846 118.347 17.5156 117.532C19.1727 129.15 25.4037 139.529 40.3972 144.107C43.5444 145.068 60.4317 144.107 60.4317 144.107H60.5958C60.5958 144.107 80.6469 145.27 84.7623 144.107C98.9279 140.116 104.153 129.483 104.916 117.421Z" fill="url(#paint1_linear_660_4857)"/>
<path d="M74.2577 96.227C72.7112 95.3865 70.6842 97.4512 69.7527 100.815C69.7527 100.815 66.2325 109.792 70.7554 112.248C75.2129 114.664 80.8906 106.859 80.8906 106.859C83.2005 104.244 83.8254 101.418 82.2829 100.582L74.2577 96.227Z" fill="url(#paint2_linear_660_4857)"/>
<path d="M45.7548 96.5534C47.2637 95.7387 49.2394 97.7499 50.151 101.033C50.151 101.033 53.5881 109.798 49.1701 112.194C44.821 114.56 39.2781 106.934 39.2781 106.934C37.0216 104.385 36.4113 101.626 37.9185 100.805L45.7548 96.5534Z" fill="url(#paint3_linear_660_4857)"/>
<path d="M79.4168 99.8661L79.1479 99.1819L78.7167 100.491C78.4082 101.436 78.1195 102.326 77.7892 103.163C77.4076 104.152 76.9745 105.079 76.4662 105.991C75.9936 106.845 75.4299 107.735 74.7378 108.728C74.1247 109.61 73.4484 110.516 72.7344 111.475L72.0977 112.335L72.9144 112.046C73.6046 111.805 74.4233 111.186 75.3548 110.197C76.2487 109.24 77.0951 108.061 77.7991 106.794C78.5368 105.481 79.1123 104.023 79.3911 102.793C79.67 101.545 79.6818 100.533 79.4168 99.8661Z" fill="url(#paint4_linear_660_4857)"/>
<path d="M74.4022 101.323C74.9223 100.594 75.5116 99.8658 76.1306 99.0966L76.9988 98.0188L76.2789 98.1651C75.5749 98.3075 74.7324 98.8691 73.8405 99.7828C72.9605 100.683 72.0547 101.962 71.3527 103.291C70.6743 104.577 70.1483 105.923 69.8299 107.205C69.5095 108.52 69.4364 109.546 69.6124 110.256L69.818 111.093L70.1661 110.153C70.6071 108.959 70.9908 107.931 71.4001 106.916C71.853 105.795 72.294 104.834 72.7508 103.977C73.2453 103.05 73.7832 102.184 74.4022 101.323Z" fill="url(#paint5_linear_660_4857)"/>
<path d="M45.2574 108.728C44.5659 107.735 43.9997 106.845 43.53 105.991C43.0241 105.079 42.589 104.152 42.206 103.163C41.8761 102.326 41.5856 101.436 41.2781 100.491L40.8493 99.1819L40.5798 99.8661C40.3171 100.533 40.3241 101.545 40.6077 102.793C40.8825 104.023 41.462 105.481 42.1967 106.794C42.8997 108.061 43.7463 109.24 44.6424 110.197C45.5709 111.186 46.3936 111.805 47.0838 112.046L47.8966 112.335L47.2598 111.475C46.5458 110.516 45.8723 109.61 45.2574 108.728Z" fill="url(#paint6_linear_660_4857)"/>
<path d="M48.6417 103.293C47.9416 101.962 47.0359 100.683 46.1538 99.7828C45.2655 98.8691 44.4211 98.3075 43.7172 98.1651L42.9966 98.0188L43.8655 99.0966C44.4859 99.8658 45.0715 100.594 45.593 101.323C46.2132 102.184 46.7511 103.05 47.2435 103.977C47.7003 104.834 48.1413 105.795 48.5942 106.916C49.0075 107.931 49.3872 108.959 49.8302 110.153L50.1783 111.093L50.384 110.256C50.56 109.546 50.4868 108.52 50.1664 107.205C49.848 105.923 49.322 104.577 48.6417 103.293Z" fill="url(#paint7_linear_660_4857)"/>
<path d="M98.6646 55.5146C99.4616 55.6451 100.389 54.0512 100.389 54.0512C97.2032 53.6517 94.6797 49.5343 94.6797 49.5343C96.6712 50.4657 98.0001 50.2027 98.0001 50.2027C94.4246 48.6523 90.4239 41.434 89.6368 39.9705C89.174 38.3014 88.6282 36.3555 87.8372 33.9527C84.5504 23.9499 63.6232 22.2729 61.1255 22.2867C52.9283 22.3302 37.4614 23.9499 34.1744 33.9527C33.429 36.2091 32.9006 38.1096 32.4564 39.7688C32.0702 40.5025 27.7875 48.5534 23.9875 50.2027C23.9875 50.2027 25.3155 50.4657 27.3069 49.5343C27.3069 49.5343 24.7823 53.6517 21.595 54.0512C21.595 54.0512 22.4889 55.5799 23.2744 55.5166L23.2481 55.5799C22.6997 56.0763 19.0557 59.5549 19.6708 63.5497C19.6708 63.5497 20.7321 60.959 21.7943 60.4962C21.7943 60.4962 21.2651 68.5333 23.5216 70.588C23.5216 70.588 23.3748 68.379 23.7996 66.874C26.5159 74.0884 33.9349 81.0891 49.6455 78.5756C52.6297 78.1009 57.9969 75.0258 61.1255 75.0258C66.3741 75.0258 69.3801 78.1009 72.3643 78.5756C88.2169 81.1089 95.5222 74.0172 98.1524 66.7534C98.6211 68.2544 98.4649 70.588 98.4649 70.588C100.721 68.5333 100.191 60.4962 100.191 60.4962C101.253 60.959 102.317 63.5497 102.317 63.5497C102.98 59.2345 98.6646 55.5146 98.6646 55.5146Z" fill="url(#paint8_linear_660_4857)"/>
<path d="M82.3873 48.0807C83.0854 50.883 81.9325 53.5825 81.4677 53.6991C80.5976 53.9186 77.2594 53.7367 76.5079 49.5204C75.8335 45.7234 78.351 43.6963 78.9383 43.55C79.7867 43.3404 81.6872 45.2765 82.3873 48.0807Z" fill="url(#paint9_linear_660_4857)"/>
<path d="M39.5985 48.0807C38.9026 50.883 40.0536 53.5825 40.5187 53.6991C41.3922 53.9186 44.7294 53.7367 45.477 49.5204C46.1533 45.7234 43.6356 43.6963 43.0485 43.55C42.2026 43.3404 40.2984 45.2765 39.5985 48.0807Z" fill="url(#paint10_linear_660_4857)"/>
<path d="M94.8265 63.7964C91.4823 61.5242 79.9469 68.4557 67.9388 57.6836H61.1655H60.8233H54.048C42.0382 68.4557 30.5024 61.5242 27.1598 63.7964C22.51 66.9547 32.1626 82.1863 41.6373 82.1863C42.881 82.1863 49.0664 82.5126 54.2913 80.1098C56.0692 79.2871 58.1694 76.9239 60.8233 76.8527V76.8665L60.9914 76.8507L61.1655 76.8665V76.8527C63.8175 76.9239 66.0047 79.0814 67.6975 80.1098C70.486 81.7967 79.1064 82.1863 80.3503 82.1863C89.8231 82.1863 99.4758 66.9547 94.8265 63.7964Z" fill="url(#paint11_linear_660_4857)"/>
<path d="M68.4882 77.96C66.7974 77.96 65.2983 76.8703 64.2561 76.1129C63.9338 75.8795 63.6549 75.6739 63.4591 75.5769C62.2073 74.9125 61.2739 75.0984 61.2343 75.1063L60.7992 75.0034L60.6074 74.602V63.7785C60.6074 63.4957 60.8368 63.2604 61.1236 63.2604C61.4064 63.2604 61.6397 63.4957 61.6397 63.7785V74.0483C62.1717 74.0502 62.9984 74.1649 63.9417 74.6633C64.2027 74.7978 64.5073 75.0232 64.8633 75.2803C65.9233 76.0496 67.5232 77.2144 69.0914 76.8624C70.1573 76.6271 71.1402 75.7114 72.0104 74.1372C72.1468 73.89 72.4612 73.801 72.7104 73.9355C72.9596 74.074 73.0506 74.3904 72.9121 74.6376C71.8917 76.4787 70.6814 77.5625 69.3149 77.871C69.0341 77.9343 68.7592 77.96 68.4882 77.96Z" fill="url(#paint12_linear_660_4857)"/>
<path d="M53.7589 77.96C53.486 77.96 53.2091 77.9343 52.9302 77.871C51.5637 77.5625 50.3534 76.4787 49.331 74.6376C49.1945 74.3904 49.2855 74.0759 49.5347 73.9355C49.7839 73.801 50.0983 73.89 50.2348 74.1372C51.1049 75.7114 52.0858 76.6271 53.1537 76.8624C54.722 77.2105 56.3238 76.0496 57.3819 75.2803C57.7378 75.0232 58.0404 74.7978 58.3054 74.6633C59.2468 74.1649 60.0754 74.0502 60.6074 74.0483V63.7785C60.6074 63.4957 60.8368 63.2604 61.1235 63.2604C61.4063 63.2604 61.6397 63.4957 61.6397 63.7785V74.602L61.4439 75.0074L61.0049 75.1043C60.9732 75.0984 60.0398 74.9125 58.786 75.5769C58.5902 75.6739 58.3113 75.8795 57.987 76.1129C56.9488 76.8703 55.4458 77.96 53.7589 77.96Z" fill="url(#paint13_linear_660_4857)"/>
<path d="M53.7812 58.0357C54.1333 61.6666 58.7648 64.0654 61.0332 64.0654C63.8434 64.0654 68.0458 61.4075 68.3958 57.7727C68.3958 57.7727 64.7214 55.1148 60.4241 55.1148C56.8189 55.1148 53.7812 58.0357 53.7812 58.0357Z" fill="url(#paint14_linear_660_4857)"/>
<path d="M83.4956 41.5665C83.4956 41.5665 85.1726 17.3743 98.7272 22.791C100.94 23.675 101.739 34.4807 95.7153 38.2006C89.6934 41.9204 86.1535 41.0365 85.0915 42.6265C85.0915 42.6265 83.2306 43.4274 83.4956 41.5665Z" fill="url(#paint15_linear_660_4857)"/>
<path d="M99.9425 24.7007C97.5041 24.853 94.2311 27.4694 91.8362 31.4463C89.6965 34.9981 88.8441 38.6547 89.3998 40.9844C91.061 40.5256 94.1382 39.6455 96.6913 38.0674C101.362 35.186 100.955 28.1793 99.9425 24.7007Z" fill="url(#paint16_linear_660_4857)"/>
<path d="M38.4911 41.5665C38.4911 41.5665 36.8123 17.3743 23.2579 22.791C21.0448 23.675 20.2468 34.4807 26.2685 38.2006C32.2917 41.9204 35.832 41.0365 36.8942 42.6265C36.8942 42.6265 38.7551 43.4274 38.4911 41.5665Z" fill="url(#paint17_linear_660_4857)"/>
<path d="M22.0438 24.7007C24.4832 24.853 27.7547 27.4694 30.1526 31.4463C32.2902 34.9981 33.1416 38.6547 32.5876 40.9844C30.9253 40.5256 27.8475 39.6455 25.2952 38.0674C20.6254 35.186 21.0332 28.1793 22.0438 24.7007Z" fill="url(#paint18_linear_660_4857)"/>
</g>
<path d="M87.3357 90.2219C84.0583 93.7289 78.5114 96.0447 69.6488 94.6252C67.2422 94.2425 64.818 91.7625 60.5853 91.7625C58.0623 91.7625 53.7338 94.2425 51.3272 94.6252C41.8434 96.142 36.1069 93.3589 32.9035 89.4244C27.5926 99.6618 13.5584 138.225 43.8413 147.474C46.3788 148.249 60 147.474 60 147.474H60.1324C60.1324 147.474 76.301 148.412 79.6214 147.474C106.783 139.819 93.1968 101.885 87.3357 90.2219Z" fill="#C3633A"/>
<path d="M95.9003 125.953C93.7441 126.541 90.4411 128.173 88.2036 132.694C85.8049 137.54 80.2772 139.334 75.5612 137.836C70.85 136.335 69.0558 119.837 73.2056 112.483C78.2054 103.628 41.2125 102.772 47.8044 112.483C52.5459 119.468 50.1616 136.335 45.4488 137.836C40.7354 139.334 35.2083 137.54 32.8072 132.694C30.6722 128.38 27.5684 126.699 25.416 126.042C26.7523 135.412 31.7774 143.782 43.8689 147.474C46.407 148.249 60.0257 147.474 60.0257 147.474H60.1581C60.1581 147.474 76.3283 148.412 79.6472 147.474C91.0711 144.255 95.2847 135.68 95.9003 125.953Z" fill="#864226"/>
<path d="M71.1757 108.861C69.9285 108.183 68.2938 109.848 67.5426 112.561C67.5426 112.561 64.7038 119.8 68.3512 121.781C71.946 123.73 76.5248 117.435 76.5248 117.435C78.3876 115.327 78.8916 113.048 77.6476 112.373L71.1757 108.861Z" fill="#F68A7E"/>
<path d="M48.1893 109.124C49.4062 108.467 50.9994 110.089 51.7347 112.736C51.7347 112.736 54.5065 119.805 50.9436 121.738C47.4362 123.645 42.9662 117.495 42.9662 117.495C41.1464 115.439 40.6543 113.215 41.8697 112.553L48.1893 109.124Z" fill="#F68A7E"/>
<path d="M75.3361 111.795L75.1192 111.243L74.7716 112.299C74.5228 113.061 74.2899 113.779 74.0236 114.454C73.7158 115.251 73.3665 115.999 72.9566 116.734C72.5754 117.423 72.1209 118.141 71.5627 118.942C71.0683 119.653 70.5229 120.383 69.9471 121.157L69.4336 121.851L70.0923 121.618C70.6489 121.423 71.3091 120.924 72.0603 120.127C72.7812 119.355 73.4638 118.404 74.0315 117.382C74.6264 116.323 75.0905 115.147 75.3154 114.155C75.5403 113.149 75.5499 112.333 75.3361 111.795Z" fill="#E0594F"/>
<path d="M71.292 112.97C71.7114 112.382 72.1867 111.795 72.6859 111.174L73.386 110.305L72.8055 110.423C72.2377 110.538 71.5583 110.991 70.8391 111.728C70.1294 112.453 69.3989 113.485 68.8327 114.557C68.2857 115.594 67.8615 116.68 67.6047 117.713C67.3463 118.774 67.2873 119.601 67.4293 120.174L67.5951 120.849L67.8758 120.091C68.2315 119.128 68.5409 118.298 68.871 117.48C69.2362 116.576 69.5919 115.801 69.9603 115.11C70.359 114.362 70.7928 113.664 71.292 112.97Z" fill="#E0594F"/>
<path d="M47.7882 118.942C47.2305 118.141 46.7739 117.423 46.3951 116.734C45.9872 115.999 45.6363 115.251 45.3274 114.454C45.0614 113.779 44.8271 113.061 44.5791 112.299L44.2333 111.243L44.0159 111.795C43.8041 112.333 43.8097 113.149 44.0384 114.155C44.2601 115.147 44.7274 116.323 45.3199 117.382C45.8869 118.404 46.5696 119.355 47.2922 120.127C48.041 120.924 48.7045 121.423 49.2611 121.618L49.9166 121.851L49.403 121.157C48.8273 120.383 48.2841 119.653 47.7882 118.942Z" fill="#E0594F"/>
<path d="M50.5173 114.559C49.9528 113.485 49.2223 112.453 48.511 111.728C47.7946 110.991 47.1136 110.538 46.546 110.423L45.9648 110.305L46.6656 111.174C47.1659 111.795 47.6382 112.382 48.0587 112.97C48.5589 113.664 48.9927 114.362 49.3898 115.11C49.7582 115.801 50.1138 116.576 50.4791 117.48C50.8124 118.298 51.1186 119.128 51.4759 120.091L51.7565 120.849L51.9224 120.174C52.0643 119.601 52.0053 118.774 51.747 117.713C51.4902 116.68 51.066 115.594 50.5173 114.559Z" fill="#E0594F"/>
<path d="M90.8586 76.0277C91.5013 76.1329 92.2493 74.8475 92.2493 74.8475C89.68 74.5253 87.645 71.2049 87.645 71.2049C89.251 71.956 90.3227 71.7439 90.3227 71.7439C87.4392 70.4936 84.2128 64.6723 83.5781 63.4922C83.2049 62.1461 82.7647 60.5768 82.1268 58.639C79.4761 50.5723 62.5994 49.2198 60.5851 49.231C53.9745 49.2661 41.5011 50.5723 38.8503 58.639C38.2492 60.4588 37.8231 61.9914 37.4649 63.3295C37.1534 63.9212 33.6996 70.4138 30.6351 71.7439C30.6351 71.7439 31.706 71.956 33.312 71.2049C33.312 71.2049 31.2761 74.5253 28.7056 74.8475C28.7056 74.8475 29.4265 76.0803 30.06 76.0293L30.0388 76.0803C29.5965 76.4806 26.6578 79.286 27.1538 82.5076C27.1538 82.5076 28.0098 80.4183 28.8664 80.0451C28.8664 80.0451 28.4396 86.5266 30.2593 88.1837C30.2593 88.1837 30.141 86.4022 30.4836 85.1885C32.6741 91.0065 38.6572 96.6523 51.327 94.6252C53.7336 94.2425 58.0621 91.7625 60.5851 91.7625C64.8179 91.7625 67.242 94.2425 69.6486 94.6252C82.433 96.6682 88.3244 90.9491 90.4455 85.0912C90.8235 86.3017 90.6975 88.1837 90.6975 88.1837C92.5172 86.5266 92.0898 80.0451 92.0898 80.0451C92.9463 80.4183 93.8043 82.5076 93.8043 82.5076C94.3386 79.0276 90.8586 76.0277 90.8586 76.0277Z" fill="#C3633A"/>
<path d="M77.7317 70.0322C78.2947 72.2921 77.3649 74.4691 76.9901 74.5632C76.2884 74.7402 73.5963 74.5935 72.9902 71.1933C72.4464 68.1312 74.4766 66.4965 74.9503 66.3784C75.6345 66.2094 77.1671 67.7707 77.7317 70.0322Z" fill="#1E1612"/>
<path d="M43.2247 70.0322C42.6635 72.2921 43.5917 74.4691 43.9668 74.5632C44.6713 74.7402 47.3626 74.5935 47.9654 71.1933C48.5109 68.1312 46.4805 66.4965 46.007 66.3784C45.3248 66.2094 43.7892 67.7707 43.2247 70.0322Z" fill="#1E1612"/>
<path d="M87.7635 82.7073C85.0666 80.8748 75.7639 86.4648 66.0799 77.7776H60.6175H60.3416H54.8777C45.1923 86.4648 35.8892 80.8748 33.1936 82.7073C29.4438 85.2543 37.2281 97.5378 44.869 97.5378C45.872 97.5378 50.8602 97.8009 55.0738 95.8632C56.5076 95.1997 58.2014 93.2939 60.3416 93.2365V93.2477L60.4772 93.2349L60.6175 93.2477V93.2365C62.7562 93.2939 64.5202 95.0339 65.8853 95.8632C68.1341 97.2236 75.086 97.5378 76.0892 97.5378C83.7285 97.5378 91.513 85.2543 87.7635 82.7073Z" fill="white"/>
<path d="M66.523 94.1289C65.1594 94.1289 63.9505 93.2501 63.11 92.6393C62.85 92.4511 62.6251 92.2853 62.4672 92.2071C61.4577 91.6713 60.7049 91.8212 60.673 91.8275L60.3222 91.7446L60.1675 91.4209V82.6922C60.1675 82.4642 60.3525 82.2744 60.5837 82.2744C60.8118 82.2744 61 82.4642 61 82.6922V90.9743C61.429 90.9759 62.0957 91.0684 62.8564 91.4703C63.0669 91.5788 63.3125 91.7606 63.5996 91.9679C64.4544 92.5883 65.7447 93.5277 67.0094 93.2438C67.869 93.054 68.6617 92.3156 69.3634 91.0461C69.4734 90.8467 69.727 90.7749 69.928 90.8834C70.1289 90.995 70.2023 91.2502 70.0906 91.4496C69.2677 92.9344 68.2917 93.8083 67.1896 94.0571C66.9631 94.1082 66.7415 94.1289 66.523 94.1289Z" fill="#312621"/>
<path d="M54.644 94.1289C54.4239 94.1289 54.2006 94.1082 53.9757 94.0571C52.8737 93.8083 51.8977 92.9344 51.0731 91.4496C50.9631 91.2502 51.0364 90.9966 51.2374 90.8834C51.4383 90.7749 51.6919 90.8467 51.802 91.0461C52.5037 92.3156 53.2947 93.054 54.156 93.2438C55.4207 93.5245 56.7125 92.5883 57.5657 91.9679C57.8528 91.7606 58.0968 91.5788 58.3105 91.4703C59.0697 91.0684 59.7379 90.9759 60.167 90.9743V82.6922C60.167 82.4642 60.352 82.2744 60.5832 82.2744C60.8113 82.2744 60.9995 82.4642 60.9995 82.6922V91.4209L60.8416 91.7478L60.4875 91.826C60.462 91.8212 59.7092 91.6713 58.6981 92.2071C58.5402 92.2853 58.3153 92.4511 58.0538 92.6393C57.2165 93.2501 56.0044 94.1289 54.644 94.1289Z" fill="#312621"/>
<path d="M54.6621 78.0611C54.946 80.9893 58.6811 82.9238 60.5104 82.9238C62.7767 82.9238 66.1658 80.7804 66.4481 77.849C66.4481 77.849 63.4848 75.7055 60.0192 75.7055C57.1118 75.7055 54.6621 78.0611 54.6621 78.0611Z" fill="#F68A7E"/>
<path d="M78.6253 64.7794C78.6253 64.7794 79.9778 45.2696 90.9089 49.6379C92.6935 50.3508 93.3378 59.065 88.4799 62.065C83.6236 65.0649 80.7688 64.352 79.9124 65.6342C79.9124 65.6342 78.4116 66.2802 78.6253 64.7794Z" fill="#C3633A"/>
<path d="M91.889 51.1785C89.9225 51.3014 87.2831 53.4113 85.3517 56.6186C83.6261 59.4829 82.9387 62.4318 83.3868 64.3105C84.7265 63.9405 87.2081 63.2308 89.267 61.9581C93.0341 59.6344 92.7056 53.9839 91.889 51.1785Z" fill="#F68A7E"/>
<path d="M42.3317 64.7794C42.3317 64.7794 40.9779 45.2696 30.0469 49.6379C28.2621 50.3508 27.6186 59.065 32.4748 62.065C37.3322 65.0649 40.1873 64.352 41.0439 65.6342C41.0439 65.6342 42.5447 66.2802 42.3317 64.7794Z" fill="#C3633A"/>
<path d="M29.0677 51.1785C31.035 51.3014 33.6733 53.4113 35.6071 56.6186C37.331 59.4829 38.0176 62.4318 37.5708 64.3105C36.2302 63.9405 33.7481 63.2308 31.6898 61.9581C27.9239 59.6344 28.2528 53.9839 29.0677 51.1785Z" fill="#F68A7E"/>
</g>
</g>
<defs>
<linearGradient id="paint0_linear_660_4857" x1="60.9929" y1="144.624" x2="60.9929" y2="72.126" gradientUnits="userSpaceOnUse">
<stop stop-color="#F68A7E"/>
<stop offset="1" stop-color="#F68A7E" stop-opacity="0"/>
</linearGradient>
<linearGradient id="paint1_linear_660_4857" x1="61.2159" y1="144.624" x2="61.2159" y2="92.0807" gradientUnits="userSpaceOnUse">
<stop stop-color="#F68A7E"/>
<stop offset="1" stop-color="#F68A7E" stop-opacity="0"/>
</linearGradient>
<linearGradient id="paint2_linear_660_4857" x1="75.7886" y1="112.712" x2="75.7886" y2="96.0395" gradientUnits="userSpaceOnUse">
<stop stop-color="#F68A7E"/>
<stop offset="1" stop-color="#F68A7E" stop-opacity="0"/>
</linearGradient>
<linearGradient id="paint3_linear_660_4857" x1="44.258" y1="112.649" x2="44.258" y2="96.3723" gradientUnits="userSpaceOnUse">
<stop stop-color="#F68A7E"/>
<stop offset="1" stop-color="#F68A7E" stop-opacity="0"/>
</linearGradient>
<linearGradient id="paint4_linear_660_4857" x1="75.8529" y1="112.335" x2="75.8529" y2="99.1819" gradientUnits="userSpaceOnUse">
<stop stop-color="#F68A7E"/>
<stop offset="1" stop-color="#F68A7E" stop-opacity="0"/>
</linearGradient>
<linearGradient id="paint5_linear_660_4857" x1="73.2589" y1="111.093" x2="73.2589" y2="98.0188" gradientUnits="userSpaceOnUse">
<stop stop-color="#F68A7E"/>
<stop offset="1" stop-color="#F68A7E" stop-opacity="0"/>
</linearGradient>
<linearGradient id="paint6_linear_660_4857" x1="44.1426" y1="112.335" x2="44.1426" y2="99.1819" gradientUnits="userSpaceOnUse">
<stop stop-color="#F68A7E"/>
<stop offset="1" stop-color="#F68A7E" stop-opacity="0"/>
</linearGradient>
<linearGradient id="paint7_linear_660_4857" x1="46.7369" y1="111.093" x2="46.7369" y2="98.0188" gradientUnits="userSpaceOnUse">
<stop stop-color="#F68A7E"/>
<stop offset="1" stop-color="#F68A7E" stop-opacity="0"/>
</linearGradient>
<linearGradient id="paint8_linear_660_4857" x1="60.9938" y1="79.0996" x2="60.9938" y2="22.2866" gradientUnits="userSpaceOnUse">
<stop stop-color="#F68A7E"/>
<stop offset="1" stop-color="#F68A7E" stop-opacity="0"/>
</linearGradient>
<linearGradient id="paint9_linear_660_4857" x1="79.5002" y1="53.7588" x2="79.5002" y2="43.5345" gradientUnits="userSpaceOnUse">
<stop stop-color="#F68A7E"/>
<stop offset="1" stop-color="#F68A7E" stop-opacity="0"/>
</linearGradient>
<linearGradient id="paint10_linear_660_4857" x1="42.4859" y1="53.7588" x2="42.4859" y2="43.5345" gradientUnits="userSpaceOnUse">
<stop stop-color="#F68A7E"/>
<stop offset="1" stop-color="#F68A7E" stop-opacity="0"/>
</linearGradient>
<linearGradient id="paint11_linear_660_4857" x1="60.993" y1="82.2012" x2="60.993" y2="57.6836" gradientUnits="userSpaceOnUse">
<stop stop-color="#F68A7E"/>
<stop offset="1" stop-color="#F68A7E" stop-opacity="0"/>
</linearGradient>
<linearGradient id="paint12_linear_660_4857" x1="66.7922" y1="77.96" x2="66.7922" y2="63.2604" gradientUnits="userSpaceOnUse">
<stop stop-color="#F68A7E"/>
<stop offset="1" stop-color="#F68A7E" stop-opacity="0"/>
</linearGradient>
<linearGradient id="paint13_linear_660_4857" x1="55.4536" y1="77.96" x2="55.4536" y2="63.2604" gradientUnits="userSpaceOnUse">
<stop stop-color="#F68A7E"/>
<stop offset="1" stop-color="#F68A7E" stop-opacity="0"/>
</linearGradient>
<linearGradient id="paint14_linear_660_4857" x1="61.0885" y1="64.0654" x2="61.0885" y2="55.1148" gradientUnits="userSpaceOnUse">
<stop stop-color="#F68A7E"/>
<stop offset="1" stop-color="#F68A7E" stop-opacity="0"/>
</linearGradient>
<linearGradient id="paint15_linear_660_4857" x1="91.9186" y1="42.7979" x2="91.9186" y2="22.0004" gradientUnits="userSpaceOnUse">
<stop stop-color="#F68A7E"/>
<stop offset="1" stop-color="#F68A7E" stop-opacity="0"/>
</linearGradient>
<linearGradient id="paint16_linear_660_4857" x1="94.9132" y1="40.9844" x2="94.9132" y2="24.7007" gradientUnits="userSpaceOnUse">
<stop stop-color="#F68A7E"/>
<stop offset="1" stop-color="#F68A7E" stop-opacity="0"/>
</linearGradient>
<linearGradient id="paint17_linear_660_4857" x1="30.0672" y1="42.7979" x2="30.0672" y2="22.0004" gradientUnits="userSpaceOnUse">
<stop stop-color="#F68A7E"/>
<stop offset="1" stop-color="#F68A7E" stop-opacity="0"/>
</linearGradient>
<linearGradient id="paint18_linear_660_4857" x1="27.0739" y1="40.9844" x2="27.0739" y2="24.7007" gradientUnits="userSpaceOnUse">
<stop stop-color="#F68A7E"/>
<stop offset="1" stop-color="#F68A7E" stop-opacity="0"/>
</linearGradient>
<clipPath id="clip0_660_4857">
<rect width="120" height="119.997" fill="white"/>
</clipPath>
</defs>
</svg>
